<mxfile host="app.diagrams.net" agent="Mozilla/5.0 (Macintosh; Intel Mac OS X 10_15_7) AppleWebKit/537.36 (KHTML, like Gecko) Chrome/132.0.0.0 Safari/537.36" version="26.0.11">
  <diagram id="R2lEEEUBdFMjLlhIrx00" name="Page-1">
    <mxGraphModel dx="2226" dy="2046" grid="1" gridSize="10" guides="1" tooltips="1" connect="1" arrows="1" fold="1" page="1" pageScale="1" pageWidth="850" pageHeight="1100" math="0" shadow="0" extFonts="Permanent Marker^https://fonts.googleapis.com/css?family=Permanent+Marker">
      <root>
        <mxCell id="0" />
        <mxCell id="1" parent="0" />
        <mxCell id="U3Y6qxCmVOaivF_U4p9_-306" value="mst_store" style="shape=table;startSize=25;container=1;collapsible=0;childLayout=tableLayout;fixedRows=1;rowLines=1;fontStyle=1;align=center;resizeLast=1;" vertex="1" parent="1">
          <mxGeometry x="1450" y="-399" width="100" height="46" as="geometry" />
        </mxCell>
        <mxCell id="U3Y6qxCmVOaivF_U4p9_-307" style="shape=tableRow;horizontal=0;startSize=0;swimlaneHead=0;swimlaneBody=0;fillColor=none;collapsible=0;dropTarget=0;points=[[0,0.5],[1,0.5]];portConstraint=eastwest;top=0;left=0;right=0;bottom=0;" vertex="1" parent="U3Y6qxCmVOaivF_U4p9_-306">
          <mxGeometry y="25" width="100" height="21" as="geometry" />
        </mxCell>
        <mxCell id="U3Y6qxCmVOaivF_U4p9_-308" value="int" style="shape=partialRectangle;connectable=0;fillColor=none;top=0;left=0;bottom=0;right=0;align=left;spacingLeft=2;overflow=hidden;fontSize=11;" vertex="1" parent="U3Y6qxCmVOaivF_U4p9_-307">
          <mxGeometry width="18" height="21" as="geometry">
            <mxRectangle width="18" height="21" as="alternateBounds" />
          </mxGeometry>
        </mxCell>
        <mxCell id="U3Y6qxCmVOaivF_U4p9_-309" value="store_id" style="shape=partialRectangle;connectable=0;fillColor=none;top=0;left=0;bottom=0;right=0;align=left;spacingLeft=2;overflow=hidden;fontSize=11;" vertex="1" parent="U3Y6qxCmVOaivF_U4p9_-307">
          <mxGeometry x="18" width="60" height="21" as="geometry">
            <mxRectangle width="60" height="21" as="alternateBounds" />
          </mxGeometry>
        </mxCell>
        <mxCell id="U3Y6qxCmVOaivF_U4p9_-310" value="PK" style="shape=partialRectangle;connectable=0;fillColor=none;top=0;left=0;bottom=0;right=0;align=left;spacingLeft=2;overflow=hidden;fontSize=11;" vertex="1" parent="U3Y6qxCmVOaivF_U4p9_-307">
          <mxGeometry x="78" width="22" height="21" as="geometry">
            <mxRectangle width="22" height="21" as="alternateBounds" />
          </mxGeometry>
        </mxCell>
        <mxCell id="U3Y6qxCmVOaivF_U4p9_-311" value="beauty_merit" style="shape=table;startSize=25;container=1;collapsible=0;childLayout=tableLayout;fixedRows=1;rowLines=1;fontStyle=1;align=center;resizeLast=1;" vertex="1" parent="1">
          <mxGeometry x="1090" y="-660" width="130" height="69" as="geometry" />
        </mxCell>
        <mxCell id="U3Y6qxCmVOaivF_U4p9_-312" style="shape=tableRow;horizontal=0;startSize=0;swimlaneHead=0;swimlaneBody=0;fillColor=none;collapsible=0;dropTarget=0;points=[[0,0.5],[1,0.5]];portConstraint=eastwest;top=0;left=0;right=0;bottom=0;" vertex="1" parent="U3Y6qxCmVOaivF_U4p9_-311">
          <mxGeometry y="25" width="130" height="22" as="geometry" />
        </mxCell>
        <mxCell id="U3Y6qxCmVOaivF_U4p9_-313" value="int" style="shape=partialRectangle;connectable=0;fillColor=none;top=0;left=0;bottom=0;right=0;align=left;spacingLeft=2;overflow=hidden;fontSize=11;" vertex="1" parent="U3Y6qxCmVOaivF_U4p9_-312">
          <mxGeometry width="18" height="22" as="geometry">
            <mxRectangle width="18" height="22" as="alternateBounds" />
          </mxGeometry>
        </mxCell>
        <mxCell id="U3Y6qxCmVOaivF_U4p9_-314" value="beauty_merit_id" style="shape=partialRectangle;connectable=0;fillColor=none;top=0;left=0;bottom=0;right=0;align=left;spacingLeft=2;overflow=hidden;fontSize=11;" vertex="1" parent="U3Y6qxCmVOaivF_U4p9_-312">
          <mxGeometry x="18" width="90" height="22" as="geometry">
            <mxRectangle width="90" height="22" as="alternateBounds" />
          </mxGeometry>
        </mxCell>
        <mxCell id="U3Y6qxCmVOaivF_U4p9_-315" value="PK" style="shape=partialRectangle;connectable=0;fillColor=none;top=0;left=0;bottom=0;right=0;align=left;spacingLeft=2;overflow=hidden;fontSize=11;" vertex="1" parent="U3Y6qxCmVOaivF_U4p9_-312">
          <mxGeometry x="108" width="22" height="22" as="geometry">
            <mxRectangle width="22" height="22" as="alternateBounds" />
          </mxGeometry>
        </mxCell>
        <mxCell id="U3Y6qxCmVOaivF_U4p9_-316" style="shape=tableRow;horizontal=0;startSize=0;swimlaneHead=0;swimlaneBody=0;fillColor=none;collapsible=0;dropTarget=0;points=[[0,0.5],[1,0.5]];portConstraint=eastwest;top=0;left=0;right=0;bottom=0;" vertex="1" parent="U3Y6qxCmVOaivF_U4p9_-311">
          <mxGeometry y="47" width="130" height="22" as="geometry" />
        </mxCell>
        <mxCell id="U3Y6qxCmVOaivF_U4p9_-317" value="int" style="shape=partialRectangle;connectable=0;fillColor=none;top=0;left=0;bottom=0;right=0;align=left;spacingLeft=2;overflow=hidden;fontSize=11;" vertex="1" parent="U3Y6qxCmVOaivF_U4p9_-316">
          <mxGeometry width="18" height="22" as="geometry">
            <mxRectangle width="18" height="22" as="alternateBounds" />
          </mxGeometry>
        </mxCell>
        <mxCell id="U3Y6qxCmVOaivF_U4p9_-318" value="store_id" style="shape=partialRectangle;connectable=0;fillColor=none;top=0;left=0;bottom=0;right=0;align=left;spacingLeft=2;overflow=hidden;fontSize=11;" vertex="1" parent="U3Y6qxCmVOaivF_U4p9_-316">
          <mxGeometry x="18" width="90" height="22" as="geometry">
            <mxRectangle width="90" height="22" as="alternateBounds" />
          </mxGeometry>
        </mxCell>
        <mxCell id="U3Y6qxCmVOaivF_U4p9_-319" value="FK" style="shape=partialRectangle;connectable=0;fillColor=none;top=0;left=0;bottom=0;right=0;align=left;spacingLeft=2;overflow=hidden;fontSize=11;" vertex="1" parent="U3Y6qxCmVOaivF_U4p9_-316">
          <mxGeometry x="108" width="22" height="22" as="geometry">
            <mxRectangle width="22" height="22" as="alternateBounds" />
          </mxGeometry>
        </mxCell>
        <mxCell id="U3Y6qxCmVOaivF_U4p9_-356" value="customer" style="shape=table;startSize=25;container=1;collapsible=0;childLayout=tableLayout;fixedRows=1;rowLines=1;fontStyle=1;align=center;resizeLast=1;" vertex="1" parent="1">
          <mxGeometry x="2050" y="-674" width="110" height="46" as="geometry" />
        </mxCell>
        <mxCell id="U3Y6qxCmVOaivF_U4p9_-357" style="shape=tableRow;horizontal=0;startSize=0;swimlaneHead=0;swimlaneBody=0;fillColor=none;collapsible=0;dropTarget=0;points=[[0,0.5],[1,0.5]];portConstraint=eastwest;top=0;left=0;right=0;bottom=0;" vertex="1" parent="U3Y6qxCmVOaivF_U4p9_-356">
          <mxGeometry y="25" width="110" height="21" as="geometry" />
        </mxCell>
        <mxCell id="U3Y6qxCmVOaivF_U4p9_-358" value="int" style="shape=partialRectangle;connectable=0;fillColor=none;top=0;left=0;bottom=0;right=0;align=left;spacingLeft=2;overflow=hidden;fontSize=11;" vertex="1" parent="U3Y6qxCmVOaivF_U4p9_-357">
          <mxGeometry width="18" height="21" as="geometry">
            <mxRectangle width="18" height="21" as="alternateBounds" />
          </mxGeometry>
        </mxCell>
        <mxCell id="U3Y6qxCmVOaivF_U4p9_-359" value="customer_id" style="shape=partialRectangle;connectable=0;fillColor=none;top=0;left=0;bottom=0;right=0;align=left;spacingLeft=2;overflow=hidden;fontSize=11;" vertex="1" parent="U3Y6qxCmVOaivF_U4p9_-357">
          <mxGeometry x="18" width="70" height="21" as="geometry">
            <mxRectangle width="70" height="21" as="alternateBounds" />
          </mxGeometry>
        </mxCell>
        <mxCell id="U3Y6qxCmVOaivF_U4p9_-360" value="PK" style="shape=partialRectangle;connectable=0;fillColor=none;top=0;left=0;bottom=0;right=0;align=left;spacingLeft=2;overflow=hidden;fontSize=11;" vertex="1" parent="U3Y6qxCmVOaivF_U4p9_-357">
          <mxGeometry x="88" width="22" height="21" as="geometry">
            <mxRectangle width="22" height="21" as="alternateBounds" />
          </mxGeometry>
        </mxCell>
        <mxCell id="U3Y6qxCmVOaivF_U4p9_-361" value="store_customer" style="shape=table;startSize=25;container=1;collapsible=0;childLayout=tableLayout;fixedRows=1;rowLines=1;fontStyle=1;align=center;resizeLast=1;" vertex="1" parent="1">
          <mxGeometry x="1660" y="-550" width="113" height="69" as="geometry" />
        </mxCell>
        <mxCell id="U3Y6qxCmVOaivF_U4p9_-362" style="shape=tableRow;horizontal=0;startSize=0;swimlaneHead=0;swimlaneBody=0;fillColor=none;collapsible=0;dropTarget=0;points=[[0,0.5],[1,0.5]];portConstraint=eastwest;top=0;left=0;right=0;bottom=0;" vertex="1" parent="U3Y6qxCmVOaivF_U4p9_-361">
          <mxGeometry y="25" width="113" height="22" as="geometry" />
        </mxCell>
        <mxCell id="U3Y6qxCmVOaivF_U4p9_-363" value="int" style="shape=partialRectangle;connectable=0;fillColor=none;top=0;left=0;bottom=0;right=0;align=left;spacingLeft=2;overflow=hidden;fontSize=11;" vertex="1" parent="U3Y6qxCmVOaivF_U4p9_-362">
          <mxGeometry width="18" height="22" as="geometry">
            <mxRectangle width="18" height="22" as="alternateBounds" />
          </mxGeometry>
        </mxCell>
        <mxCell id="U3Y6qxCmVOaivF_U4p9_-364" value="store_id" style="shape=partialRectangle;connectable=0;fillColor=none;top=0;left=0;bottom=0;right=0;align=left;spacingLeft=2;overflow=hidden;fontSize=11;" vertex="1" parent="U3Y6qxCmVOaivF_U4p9_-362">
          <mxGeometry x="18" width="73" height="22" as="geometry">
            <mxRectangle width="73" height="22" as="alternateBounds" />
          </mxGeometry>
        </mxCell>
        <mxCell id="U3Y6qxCmVOaivF_U4p9_-365" value="FK" style="shape=partialRectangle;connectable=0;fillColor=none;top=0;left=0;bottom=0;right=0;align=left;spacingLeft=2;overflow=hidden;fontSize=11;" vertex="1" parent="U3Y6qxCmVOaivF_U4p9_-362">
          <mxGeometry x="91" width="22" height="22" as="geometry">
            <mxRectangle width="22" height="22" as="alternateBounds" />
          </mxGeometry>
        </mxCell>
        <mxCell id="U3Y6qxCmVOaivF_U4p9_-366" style="shape=tableRow;horizontal=0;startSize=0;swimlaneHead=0;swimlaneBody=0;fillColor=none;collapsible=0;dropTarget=0;points=[[0,0.5],[1,0.5]];portConstraint=eastwest;top=0;left=0;right=0;bottom=0;" vertex="1" parent="U3Y6qxCmVOaivF_U4p9_-361">
          <mxGeometry y="47" width="113" height="22" as="geometry" />
        </mxCell>
        <mxCell id="U3Y6qxCmVOaivF_U4p9_-367" value="int" style="shape=partialRectangle;connectable=0;fillColor=none;top=0;left=0;bottom=0;right=0;align=left;spacingLeft=2;overflow=hidden;fontSize=11;" vertex="1" parent="U3Y6qxCmVOaivF_U4p9_-366">
          <mxGeometry width="18" height="22" as="geometry">
            <mxRectangle width="18" height="22" as="alternateBounds" />
          </mxGeometry>
        </mxCell>
        <mxCell id="U3Y6qxCmVOaivF_U4p9_-368" value="customer_id" style="shape=partialRectangle;connectable=0;fillColor=none;top=0;left=0;bottom=0;right=0;align=left;spacingLeft=2;overflow=hidden;fontSize=11;" vertex="1" parent="U3Y6qxCmVOaivF_U4p9_-366">
          <mxGeometry x="18" width="73" height="22" as="geometry">
            <mxRectangle width="73" height="22" as="alternateBounds" />
          </mxGeometry>
        </mxCell>
        <mxCell id="U3Y6qxCmVOaivF_U4p9_-369" value="FK" style="shape=partialRectangle;connectable=0;fillColor=none;top=0;left=0;bottom=0;right=0;align=left;spacingLeft=2;overflow=hidden;fontSize=11;" vertex="1" parent="U3Y6qxCmVOaivF_U4p9_-366">
          <mxGeometry x="91" width="22" height="22" as="geometry">
            <mxRectangle width="22" height="22" as="alternateBounds" />
          </mxGeometry>
        </mxCell>
        <mxCell id="U3Y6qxCmVOaivF_U4p9_-370" value="mst_category" style="shape=table;startSize=25;container=1;collapsible=0;childLayout=tableLayout;fixedRows=1;rowLines=1;fontStyle=1;align=center;resizeLast=1;" vertex="1" parent="1">
          <mxGeometry x="642" y="108" width="108" height="69" as="geometry" />
        </mxCell>
        <mxCell id="U3Y6qxCmVOaivF_U4p9_-371" style="shape=tableRow;horizontal=0;startSize=0;swimlaneHead=0;swimlaneBody=0;fillColor=none;collapsible=0;dropTarget=0;points=[[0,0.5],[1,0.5]];portConstraint=eastwest;top=0;left=0;right=0;bottom=0;" vertex="1" parent="U3Y6qxCmVOaivF_U4p9_-370">
          <mxGeometry y="25" width="108" height="22" as="geometry" />
        </mxCell>
        <mxCell id="U3Y6qxCmVOaivF_U4p9_-372" value="int" style="shape=partialRectangle;connectable=0;fillColor=none;top=0;left=0;bottom=0;right=0;align=left;spacingLeft=2;overflow=hidden;fontSize=11;" vertex="1" parent="U3Y6qxCmVOaivF_U4p9_-371">
          <mxGeometry width="18" height="22" as="geometry">
            <mxRectangle width="18" height="22" as="alternateBounds" />
          </mxGeometry>
        </mxCell>
        <mxCell id="U3Y6qxCmVOaivF_U4p9_-373" value="category_id" style="shape=partialRectangle;connectable=0;fillColor=none;top=0;left=0;bottom=0;right=0;align=left;spacingLeft=2;overflow=hidden;fontSize=11;" vertex="1" parent="U3Y6qxCmVOaivF_U4p9_-371">
          <mxGeometry x="18" width="68" height="22" as="geometry">
            <mxRectangle width="68" height="22" as="alternateBounds" />
          </mxGeometry>
        </mxCell>
        <mxCell id="U3Y6qxCmVOaivF_U4p9_-374" value="PK" style="shape=partialRectangle;connectable=0;fillColor=none;top=0;left=0;bottom=0;right=0;align=left;spacingLeft=2;overflow=hidden;fontSize=11;" vertex="1" parent="U3Y6qxCmVOaivF_U4p9_-371">
          <mxGeometry x="86" width="22" height="22" as="geometry">
            <mxRectangle width="22" height="22" as="alternateBounds" />
          </mxGeometry>
        </mxCell>
        <mxCell id="U3Y6qxCmVOaivF_U4p9_-375" style="shape=tableRow;horizontal=0;startSize=0;swimlaneHead=0;swimlaneBody=0;fillColor=none;collapsible=0;dropTarget=0;points=[[0,0.5],[1,0.5]];portConstraint=eastwest;top=0;left=0;right=0;bottom=0;" vertex="1" parent="U3Y6qxCmVOaivF_U4p9_-370">
          <mxGeometry y="47" width="108" height="22" as="geometry" />
        </mxCell>
        <mxCell id="U3Y6qxCmVOaivF_U4p9_-376" value="int" style="shape=partialRectangle;connectable=0;fillColor=none;top=0;left=0;bottom=0;right=0;align=left;spacingLeft=2;overflow=hidden;fontSize=11;" vertex="1" parent="U3Y6qxCmVOaivF_U4p9_-375">
          <mxGeometry width="18" height="22" as="geometry">
            <mxRectangle width="18" height="22" as="alternateBounds" />
          </mxGeometry>
        </mxCell>
        <mxCell id="U3Y6qxCmVOaivF_U4p9_-377" value="store_id" style="shape=partialRectangle;connectable=0;fillColor=none;top=0;left=0;bottom=0;right=0;align=left;spacingLeft=2;overflow=hidden;fontSize=11;" vertex="1" parent="U3Y6qxCmVOaivF_U4p9_-375">
          <mxGeometry x="18" width="68" height="22" as="geometry">
            <mxRectangle width="68" height="22" as="alternateBounds" />
          </mxGeometry>
        </mxCell>
        <mxCell id="U3Y6qxCmVOaivF_U4p9_-378" value="FK" style="shape=partialRectangle;connectable=0;fillColor=none;top=0;left=0;bottom=0;right=0;align=left;spacingLeft=2;overflow=hidden;fontSize=11;" vertex="1" parent="U3Y6qxCmVOaivF_U4p9_-375">
          <mxGeometry x="86" width="22" height="22" as="geometry">
            <mxRectangle width="22" height="22" as="alternateBounds" />
          </mxGeometry>
        </mxCell>
        <mxCell id="U3Y6qxCmVOaivF_U4p9_-379" value="mst_menu" style="shape=table;startSize=25;container=1;collapsible=0;childLayout=tableLayout;fixedRows=1;rowLines=1;fontStyle=1;align=center;resizeLast=1;" vertex="1" parent="1">
          <mxGeometry x="818" y="400" width="108" height="91" as="geometry" />
        </mxCell>
        <mxCell id="U3Y6qxCmVOaivF_U4p9_-380" style="shape=tableRow;horizontal=0;startSize=0;swimlaneHead=0;swimlaneBody=0;fillColor=none;collapsible=0;dropTarget=0;points=[[0,0.5],[1,0.5]];portConstraint=eastwest;top=0;left=0;right=0;bottom=0;" vertex="1" parent="U3Y6qxCmVOaivF_U4p9_-379">
          <mxGeometry y="25" width="108" height="22" as="geometry" />
        </mxCell>
        <mxCell id="U3Y6qxCmVOaivF_U4p9_-381" value="int" style="shape=partialRectangle;connectable=0;fillColor=none;top=0;left=0;bottom=0;right=0;align=left;spacingLeft=2;overflow=hidden;fontSize=11;" vertex="1" parent="U3Y6qxCmVOaivF_U4p9_-380">
          <mxGeometry width="18" height="22" as="geometry">
            <mxRectangle width="18" height="22" as="alternateBounds" />
          </mxGeometry>
        </mxCell>
        <mxCell id="U3Y6qxCmVOaivF_U4p9_-382" value="menu_id" style="shape=partialRectangle;connectable=0;fillColor=none;top=0;left=0;bottom=0;right=0;align=left;spacingLeft=2;overflow=hidden;fontSize=11;" vertex="1" parent="U3Y6qxCmVOaivF_U4p9_-380">
          <mxGeometry x="18" width="68" height="22" as="geometry">
            <mxRectangle width="68" height="22" as="alternateBounds" />
          </mxGeometry>
        </mxCell>
        <mxCell id="U3Y6qxCmVOaivF_U4p9_-383" value="PK" style="shape=partialRectangle;connectable=0;fillColor=none;top=0;left=0;bottom=0;right=0;align=left;spacingLeft=2;overflow=hidden;fontSize=11;" vertex="1" parent="U3Y6qxCmVOaivF_U4p9_-380">
          <mxGeometry x="86" width="22" height="22" as="geometry">
            <mxRectangle width="22" height="22" as="alternateBounds" />
          </mxGeometry>
        </mxCell>
        <mxCell id="U3Y6qxCmVOaivF_U4p9_-384" style="shape=tableRow;horizontal=0;startSize=0;swimlaneHead=0;swimlaneBody=0;fillColor=none;collapsible=0;dropTarget=0;points=[[0,0.5],[1,0.5]];portConstraint=eastwest;top=0;left=0;right=0;bottom=0;" vertex="1" parent="U3Y6qxCmVOaivF_U4p9_-379">
          <mxGeometry y="47" width="108" height="22" as="geometry" />
        </mxCell>
        <mxCell id="U3Y6qxCmVOaivF_U4p9_-385" value="int" style="shape=partialRectangle;connectable=0;fillColor=none;top=0;left=0;bottom=0;right=0;align=left;spacingLeft=2;overflow=hidden;fontSize=11;" vertex="1" parent="U3Y6qxCmVOaivF_U4p9_-384">
          <mxGeometry width="18" height="22" as="geometry">
            <mxRectangle width="18" height="22" as="alternateBounds" />
          </mxGeometry>
        </mxCell>
        <mxCell id="U3Y6qxCmVOaivF_U4p9_-386" value="store_id" style="shape=partialRectangle;connectable=0;fillColor=none;top=0;left=0;bottom=0;right=0;align=left;spacingLeft=2;overflow=hidden;fontSize=11;" vertex="1" parent="U3Y6qxCmVOaivF_U4p9_-384">
          <mxGeometry x="18" width="68" height="22" as="geometry">
            <mxRectangle width="68" height="22" as="alternateBounds" />
          </mxGeometry>
        </mxCell>
        <mxCell id="U3Y6qxCmVOaivF_U4p9_-387" value="FK" style="shape=partialRectangle;connectable=0;fillColor=none;top=0;left=0;bottom=0;right=0;align=left;spacingLeft=2;overflow=hidden;fontSize=11;" vertex="1" parent="U3Y6qxCmVOaivF_U4p9_-384">
          <mxGeometry x="86" width="22" height="22" as="geometry">
            <mxRectangle width="22" height="22" as="alternateBounds" />
          </mxGeometry>
        </mxCell>
        <mxCell id="U3Y6qxCmVOaivF_U4p9_-388" style="shape=tableRow;horizontal=0;startSize=0;swimlaneHead=0;swimlaneBody=0;fillColor=none;collapsible=0;dropTarget=0;points=[[0,0.5],[1,0.5]];portConstraint=eastwest;top=0;left=0;right=0;bottom=0;" vertex="1" parent="U3Y6qxCmVOaivF_U4p9_-379">
          <mxGeometry y="69" width="108" height="22" as="geometry" />
        </mxCell>
        <mxCell id="U3Y6qxCmVOaivF_U4p9_-389" value="int" style="shape=partialRectangle;connectable=0;fillColor=none;top=0;left=0;bottom=0;right=0;align=left;spacingLeft=2;overflow=hidden;fontSize=11;" vertex="1" parent="U3Y6qxCmVOaivF_U4p9_-388">
          <mxGeometry width="18" height="22" as="geometry">
            <mxRectangle width="18" height="22" as="alternateBounds" />
          </mxGeometry>
        </mxCell>
        <mxCell id="U3Y6qxCmVOaivF_U4p9_-390" value="category_id" style="shape=partialRectangle;connectable=0;fillColor=none;top=0;left=0;bottom=0;right=0;align=left;spacingLeft=2;overflow=hidden;fontSize=11;" vertex="1" parent="U3Y6qxCmVOaivF_U4p9_-388">
          <mxGeometry x="18" width="68" height="22" as="geometry">
            <mxRectangle width="68" height="22" as="alternateBounds" />
          </mxGeometry>
        </mxCell>
        <mxCell id="U3Y6qxCmVOaivF_U4p9_-391" value="FK" style="shape=partialRectangle;connectable=0;fillColor=none;top=0;left=0;bottom=0;right=0;align=left;spacingLeft=2;overflow=hidden;fontSize=11;" vertex="1" parent="U3Y6qxCmVOaivF_U4p9_-388">
          <mxGeometry x="86" width="22" height="22" as="geometry">
            <mxRectangle width="22" height="22" as="alternateBounds" />
          </mxGeometry>
        </mxCell>
        <mxCell id="U3Y6qxCmVOaivF_U4p9_-392" value="mst_reservation_channel" style="shape=table;startSize=25;container=1;collapsible=0;childLayout=tableLayout;fixedRows=1;rowLines=1;fontStyle=1;align=center;resizeLast=1;" vertex="1" parent="1">
          <mxGeometry x="1601" y="-200" width="172" height="69" as="geometry" />
        </mxCell>
        <mxCell id="U3Y6qxCmVOaivF_U4p9_-393" style="shape=tableRow;horizontal=0;startSize=0;swimlaneHead=0;swimlaneBody=0;fillColor=none;collapsible=0;dropTarget=0;points=[[0,0.5],[1,0.5]];portConstraint=eastwest;top=0;left=0;right=0;bottom=0;" vertex="1" parent="U3Y6qxCmVOaivF_U4p9_-392">
          <mxGeometry y="25" width="172" height="22" as="geometry" />
        </mxCell>
        <mxCell id="U3Y6qxCmVOaivF_U4p9_-394" value="int" style="shape=partialRectangle;connectable=0;fillColor=none;top=0;left=0;bottom=0;right=0;align=left;spacingLeft=2;overflow=hidden;fontSize=11;" vertex="1" parent="U3Y6qxCmVOaivF_U4p9_-393">
          <mxGeometry width="18" height="22" as="geometry">
            <mxRectangle width="18" height="22" as="alternateBounds" />
          </mxGeometry>
        </mxCell>
        <mxCell id="U3Y6qxCmVOaivF_U4p9_-395" value="reservation_channel_id" style="shape=partialRectangle;connectable=0;fillColor=none;top=0;left=0;bottom=0;right=0;align=left;spacingLeft=2;overflow=hidden;fontSize=11;" vertex="1" parent="U3Y6qxCmVOaivF_U4p9_-393">
          <mxGeometry x="18" width="132" height="22" as="geometry">
            <mxRectangle width="132" height="22" as="alternateBounds" />
          </mxGeometry>
        </mxCell>
        <mxCell id="U3Y6qxCmVOaivF_U4p9_-396" value="PK" style="shape=partialRectangle;connectable=0;fillColor=none;top=0;left=0;bottom=0;right=0;align=left;spacingLeft=2;overflow=hidden;fontSize=11;" vertex="1" parent="U3Y6qxCmVOaivF_U4p9_-393">
          <mxGeometry x="150" width="22" height="22" as="geometry">
            <mxRectangle width="22" height="22" as="alternateBounds" />
          </mxGeometry>
        </mxCell>
        <mxCell id="U3Y6qxCmVOaivF_U4p9_-397" style="shape=tableRow;horizontal=0;startSize=0;swimlaneHead=0;swimlaneBody=0;fillColor=none;collapsible=0;dropTarget=0;points=[[0,0.5],[1,0.5]];portConstraint=eastwest;top=0;left=0;right=0;bottom=0;" vertex="1" parent="U3Y6qxCmVOaivF_U4p9_-392">
          <mxGeometry y="47" width="172" height="22" as="geometry" />
        </mxCell>
        <mxCell id="U3Y6qxCmVOaivF_U4p9_-398" value="int" style="shape=partialRectangle;connectable=0;fillColor=none;top=0;left=0;bottom=0;right=0;align=left;spacingLeft=2;overflow=hidden;fontSize=11;" vertex="1" parent="U3Y6qxCmVOaivF_U4p9_-397">
          <mxGeometry width="18" height="22" as="geometry">
            <mxRectangle width="18" height="22" as="alternateBounds" />
          </mxGeometry>
        </mxCell>
        <mxCell id="U3Y6qxCmVOaivF_U4p9_-399" value="store_id" style="shape=partialRectangle;connectable=0;fillColor=none;top=0;left=0;bottom=0;right=0;align=left;spacingLeft=2;overflow=hidden;fontSize=11;" vertex="1" parent="U3Y6qxCmVOaivF_U4p9_-397">
          <mxGeometry x="18" width="132" height="22" as="geometry">
            <mxRectangle width="132" height="22" as="alternateBounds" />
          </mxGeometry>
        </mxCell>
        <mxCell id="U3Y6qxCmVOaivF_U4p9_-400" value="FK" style="shape=partialRectangle;connectable=0;fillColor=none;top=0;left=0;bottom=0;right=0;align=left;spacingLeft=2;overflow=hidden;fontSize=11;" vertex="1" parent="U3Y6qxCmVOaivF_U4p9_-397">
          <mxGeometry x="150" width="22" height="22" as="geometry">
            <mxRectangle width="22" height="22" as="alternateBounds" />
          </mxGeometry>
        </mxCell>
        <mxCell id="U3Y6qxCmVOaivF_U4p9_-401" value="discount" style="shape=table;startSize=25;container=1;collapsible=0;childLayout=tableLayout;fixedRows=1;rowLines=1;fontStyle=1;align=center;resizeLast=1;" vertex="1" parent="1">
          <mxGeometry x="1812" y="250" width="106" height="46" as="geometry" />
        </mxCell>
        <mxCell id="U3Y6qxCmVOaivF_U4p9_-402" style="shape=tableRow;horizontal=0;startSize=0;swimlaneHead=0;swimlaneBody=0;fillColor=none;collapsible=0;dropTarget=0;points=[[0,0.5],[1,0.5]];portConstraint=eastwest;top=0;left=0;right=0;bottom=0;" vertex="1" parent="U3Y6qxCmVOaivF_U4p9_-401">
          <mxGeometry y="25" width="106" height="21" as="geometry" />
        </mxCell>
        <mxCell id="U3Y6qxCmVOaivF_U4p9_-403" value="int" style="shape=partialRectangle;connectable=0;fillColor=none;top=0;left=0;bottom=0;right=0;align=left;spacingLeft=2;overflow=hidden;fontSize=11;" vertex="1" parent="U3Y6qxCmVOaivF_U4p9_-402">
          <mxGeometry width="18" height="21" as="geometry">
            <mxRectangle width="18" height="21" as="alternateBounds" />
          </mxGeometry>
        </mxCell>
        <mxCell id="U3Y6qxCmVOaivF_U4p9_-404" value="discount_id" style="shape=partialRectangle;connectable=0;fillColor=none;top=0;left=0;bottom=0;right=0;align=left;spacingLeft=2;overflow=hidden;fontSize=11;" vertex="1" parent="U3Y6qxCmVOaivF_U4p9_-402">
          <mxGeometry x="18" width="66" height="21" as="geometry">
            <mxRectangle width="66" height="21" as="alternateBounds" />
          </mxGeometry>
        </mxCell>
        <mxCell id="U3Y6qxCmVOaivF_U4p9_-405" value="PK" style="shape=partialRectangle;connectable=0;fillColor=none;top=0;left=0;bottom=0;right=0;align=left;spacingLeft=2;overflow=hidden;fontSize=11;" vertex="1" parent="U3Y6qxCmVOaivF_U4p9_-402">
          <mxGeometry x="84" width="22" height="21" as="geometry">
            <mxRectangle width="22" height="21" as="alternateBounds" />
          </mxGeometry>
        </mxCell>
        <mxCell id="U3Y6qxCmVOaivF_U4p9_-406" value="mst_shift_activity" style="shape=table;startSize=25;container=1;collapsible=0;childLayout=tableLayout;fixedRows=1;rowLines=1;fontStyle=1;align=center;resizeLast=1;" vertex="1" parent="1">
          <mxGeometry x="1640" y="250" width="142" height="46" as="geometry" />
        </mxCell>
        <mxCell id="U3Y6qxCmVOaivF_U4p9_-407" style="shape=tableRow;horizontal=0;startSize=0;swimlaneHead=0;swimlaneBody=0;fillColor=none;collapsible=0;dropTarget=0;points=[[0,0.5],[1,0.5]];portConstraint=eastwest;top=0;left=0;right=0;bottom=0;" vertex="1" parent="U3Y6qxCmVOaivF_U4p9_-406">
          <mxGeometry y="25" width="142" height="21" as="geometry" />
        </mxCell>
        <mxCell id="U3Y6qxCmVOaivF_U4p9_-408" value="int" style="shape=partialRectangle;connectable=0;fillColor=none;top=0;left=0;bottom=0;right=0;align=left;spacingLeft=2;overflow=hidden;fontSize=11;" vertex="1" parent="U3Y6qxCmVOaivF_U4p9_-407">
          <mxGeometry width="18" height="21" as="geometry">
            <mxRectangle width="18" height="21" as="alternateBounds" />
          </mxGeometry>
        </mxCell>
        <mxCell id="U3Y6qxCmVOaivF_U4p9_-409" value="shift_activity_id" style="shape=partialRectangle;connectable=0;fillColor=none;top=0;left=0;bottom=0;right=0;align=left;spacingLeft=2;overflow=hidden;fontSize=11;" vertex="1" parent="U3Y6qxCmVOaivF_U4p9_-407">
          <mxGeometry x="18" width="102" height="21" as="geometry">
            <mxRectangle width="102" height="21" as="alternateBounds" />
          </mxGeometry>
        </mxCell>
        <mxCell id="U3Y6qxCmVOaivF_U4p9_-410" value="PK" style="shape=partialRectangle;connectable=0;fillColor=none;top=0;left=0;bottom=0;right=0;align=left;spacingLeft=2;overflow=hidden;fontSize=11;" vertex="1" parent="U3Y6qxCmVOaivF_U4p9_-407">
          <mxGeometry x="120" width="22" height="21" as="geometry">
            <mxRectangle width="22" height="21" as="alternateBounds" />
          </mxGeometry>
        </mxCell>
        <mxCell id="U3Y6qxCmVOaivF_U4p9_-411" value="reservation" style="shape=table;startSize=25;container=1;collapsible=0;childLayout=tableLayout;fixedRows=1;rowLines=1;fontStyle=1;align=center;resizeLast=1;" vertex="1" parent="1">
          <mxGeometry x="1468" y="-50" width="172" height="179" as="geometry" />
        </mxCell>
        <mxCell id="U3Y6qxCmVOaivF_U4p9_-412" style="shape=tableRow;horizontal=0;startSize=0;swimlaneHead=0;swimlaneBody=0;fillColor=none;collapsible=0;dropTarget=0;points=[[0,0.5],[1,0.5]];portConstraint=eastwest;top=0;left=0;right=0;bottom=0;" vertex="1" parent="U3Y6qxCmVOaivF_U4p9_-411">
          <mxGeometry y="25" width="172" height="22" as="geometry" />
        </mxCell>
        <mxCell id="U3Y6qxCmVOaivF_U4p9_-413" value="int" style="shape=partialRectangle;connectable=0;fillColor=none;top=0;left=0;bottom=0;right=0;align=left;spacingLeft=2;overflow=hidden;fontSize=11;" vertex="1" parent="U3Y6qxCmVOaivF_U4p9_-412">
          <mxGeometry width="18" height="22" as="geometry">
            <mxRectangle width="18" height="22" as="alternateBounds" />
          </mxGeometry>
        </mxCell>
        <mxCell id="U3Y6qxCmVOaivF_U4p9_-414" value="reservation_id" style="shape=partialRectangle;connectable=0;fillColor=none;top=0;left=0;bottom=0;right=0;align=left;spacingLeft=2;overflow=hidden;fontSize=11;" vertex="1" parent="U3Y6qxCmVOaivF_U4p9_-412">
          <mxGeometry x="18" width="132" height="22" as="geometry">
            <mxRectangle width="132" height="22" as="alternateBounds" />
          </mxGeometry>
        </mxCell>
        <mxCell id="U3Y6qxCmVOaivF_U4p9_-415" value="PK" style="shape=partialRectangle;connectable=0;fillColor=none;top=0;left=0;bottom=0;right=0;align=left;spacingLeft=2;overflow=hidden;fontSize=11;" vertex="1" parent="U3Y6qxCmVOaivF_U4p9_-412">
          <mxGeometry x="150" width="22" height="22" as="geometry">
            <mxRectangle width="22" height="22" as="alternateBounds" />
          </mxGeometry>
        </mxCell>
        <mxCell id="U3Y6qxCmVOaivF_U4p9_-416" style="shape=tableRow;horizontal=0;startSize=0;swimlaneHead=0;swimlaneBody=0;fillColor=none;collapsible=0;dropTarget=0;points=[[0,0.5],[1,0.5]];portConstraint=eastwest;top=0;left=0;right=0;bottom=0;" vertex="1" parent="U3Y6qxCmVOaivF_U4p9_-411">
          <mxGeometry y="47" width="172" height="22" as="geometry" />
        </mxCell>
        <mxCell id="U3Y6qxCmVOaivF_U4p9_-417" value="int" style="shape=partialRectangle;connectable=0;fillColor=none;top=0;left=0;bottom=0;right=0;align=left;spacingLeft=2;overflow=hidden;fontSize=11;" vertex="1" parent="U3Y6qxCmVOaivF_U4p9_-416">
          <mxGeometry width="18" height="22" as="geometry">
            <mxRectangle width="18" height="22" as="alternateBounds" />
          </mxGeometry>
        </mxCell>
        <mxCell id="U3Y6qxCmVOaivF_U4p9_-418" value="staff_id" style="shape=partialRectangle;connectable=0;fillColor=none;top=0;left=0;bottom=0;right=0;align=left;spacingLeft=2;overflow=hidden;fontSize=11;" vertex="1" parent="U3Y6qxCmVOaivF_U4p9_-416">
          <mxGeometry x="18" width="132" height="22" as="geometry">
            <mxRectangle width="132" height="22" as="alternateBounds" />
          </mxGeometry>
        </mxCell>
        <mxCell id="U3Y6qxCmVOaivF_U4p9_-419" value="FK" style="shape=partialRectangle;connectable=0;fillColor=none;top=0;left=0;bottom=0;right=0;align=left;spacingLeft=2;overflow=hidden;fontSize=11;" vertex="1" parent="U3Y6qxCmVOaivF_U4p9_-416">
          <mxGeometry x="150" width="22" height="22" as="geometry">
            <mxRectangle width="22" height="22" as="alternateBounds" />
          </mxGeometry>
        </mxCell>
        <mxCell id="U3Y6qxCmVOaivF_U4p9_-420" style="shape=tableRow;horizontal=0;startSize=0;swimlaneHead=0;swimlaneBody=0;fillColor=none;collapsible=0;dropTarget=0;points=[[0,0.5],[1,0.5]];portConstraint=eastwest;top=0;left=0;right=0;bottom=0;" vertex="1" parent="U3Y6qxCmVOaivF_U4p9_-411">
          <mxGeometry y="69" width="172" height="22" as="geometry" />
        </mxCell>
        <mxCell id="U3Y6qxCmVOaivF_U4p9_-421" value="int" style="shape=partialRectangle;connectable=0;fillColor=none;top=0;left=0;bottom=0;right=0;align=left;spacingLeft=2;overflow=hidden;fontSize=11;" vertex="1" parent="U3Y6qxCmVOaivF_U4p9_-420">
          <mxGeometry width="18" height="22" as="geometry">
            <mxRectangle width="18" height="22" as="alternateBounds" />
          </mxGeometry>
        </mxCell>
        <mxCell id="U3Y6qxCmVOaivF_U4p9_-422" value="store_id" style="shape=partialRectangle;connectable=0;fillColor=none;top=0;left=0;bottom=0;right=0;align=left;spacingLeft=2;overflow=hidden;fontSize=11;" vertex="1" parent="U3Y6qxCmVOaivF_U4p9_-420">
          <mxGeometry x="18" width="132" height="22" as="geometry">
            <mxRectangle width="132" height="22" as="alternateBounds" />
          </mxGeometry>
        </mxCell>
        <mxCell id="U3Y6qxCmVOaivF_U4p9_-423" value="FK" style="shape=partialRectangle;connectable=0;fillColor=none;top=0;left=0;bottom=0;right=0;align=left;spacingLeft=2;overflow=hidden;fontSize=11;" vertex="1" parent="U3Y6qxCmVOaivF_U4p9_-420">
          <mxGeometry x="150" width="22" height="22" as="geometry">
            <mxRectangle width="22" height="22" as="alternateBounds" />
          </mxGeometry>
        </mxCell>
        <mxCell id="U3Y6qxCmVOaivF_U4p9_-424" style="shape=tableRow;horizontal=0;startSize=0;swimlaneHead=0;swimlaneBody=0;fillColor=none;collapsible=0;dropTarget=0;points=[[0,0.5],[1,0.5]];portConstraint=eastwest;top=0;left=0;right=0;bottom=0;" vertex="1" parent="U3Y6qxCmVOaivF_U4p9_-411">
          <mxGeometry y="91" width="172" height="22" as="geometry" />
        </mxCell>
        <mxCell id="U3Y6qxCmVOaivF_U4p9_-425" value="int" style="shape=partialRectangle;connectable=0;fillColor=none;top=0;left=0;bottom=0;right=0;align=left;spacingLeft=2;overflow=hidden;fontSize=11;" vertex="1" parent="U3Y6qxCmVOaivF_U4p9_-424">
          <mxGeometry width="18" height="22" as="geometry">
            <mxRectangle width="18" height="22" as="alternateBounds" />
          </mxGeometry>
        </mxCell>
        <mxCell id="U3Y6qxCmVOaivF_U4p9_-426" value="customer_id" style="shape=partialRectangle;connectable=0;fillColor=none;top=0;left=0;bottom=0;right=0;align=left;spacingLeft=2;overflow=hidden;fontSize=11;" vertex="1" parent="U3Y6qxCmVOaivF_U4p9_-424">
          <mxGeometry x="18" width="132" height="22" as="geometry">
            <mxRectangle width="132" height="22" as="alternateBounds" />
          </mxGeometry>
        </mxCell>
        <mxCell id="U3Y6qxCmVOaivF_U4p9_-427" value="FK" style="shape=partialRectangle;connectable=0;fillColor=none;top=0;left=0;bottom=0;right=0;align=left;spacingLeft=2;overflow=hidden;fontSize=11;" vertex="1" parent="U3Y6qxCmVOaivF_U4p9_-424">
          <mxGeometry x="150" width="22" height="22" as="geometry">
            <mxRectangle width="22" height="22" as="alternateBounds" />
          </mxGeometry>
        </mxCell>
        <mxCell id="U3Y6qxCmVOaivF_U4p9_-428" style="shape=tableRow;horizontal=0;startSize=0;swimlaneHead=0;swimlaneBody=0;fillColor=none;collapsible=0;dropTarget=0;points=[[0,0.5],[1,0.5]];portConstraint=eastwest;top=0;left=0;right=0;bottom=0;" vertex="1" parent="U3Y6qxCmVOaivF_U4p9_-411">
          <mxGeometry y="113" width="172" height="22" as="geometry" />
        </mxCell>
        <mxCell id="U3Y6qxCmVOaivF_U4p9_-429" value="int" style="shape=partialRectangle;connectable=0;fillColor=none;top=0;left=0;bottom=0;right=0;align=left;spacingLeft=2;overflow=hidden;fontSize=11;" vertex="1" parent="U3Y6qxCmVOaivF_U4p9_-428">
          <mxGeometry width="18" height="22" as="geometry">
            <mxRectangle width="18" height="22" as="alternateBounds" />
          </mxGeometry>
        </mxCell>
        <mxCell id="U3Y6qxCmVOaivF_U4p9_-430" value="reservation_channel_id" style="shape=partialRectangle;connectable=0;fillColor=none;top=0;left=0;bottom=0;right=0;align=left;spacingLeft=2;overflow=hidden;fontSize=11;" vertex="1" parent="U3Y6qxCmVOaivF_U4p9_-428">
          <mxGeometry x="18" width="132" height="22" as="geometry">
            <mxRectangle width="132" height="22" as="alternateBounds" />
          </mxGeometry>
        </mxCell>
        <mxCell id="U3Y6qxCmVOaivF_U4p9_-431" value="FK" style="shape=partialRectangle;connectable=0;fillColor=none;top=0;left=0;bottom=0;right=0;align=left;spacingLeft=2;overflow=hidden;fontSize=11;" vertex="1" parent="U3Y6qxCmVOaivF_U4p9_-428">
          <mxGeometry x="150" width="22" height="22" as="geometry">
            <mxRectangle width="22" height="22" as="alternateBounds" />
          </mxGeometry>
        </mxCell>
        <mxCell id="U3Y6qxCmVOaivF_U4p9_-432" style="shape=tableRow;horizontal=0;startSize=0;swimlaneHead=0;swimlaneBody=0;fillColor=none;collapsible=0;dropTarget=0;points=[[0,0.5],[1,0.5]];portConstraint=eastwest;top=0;left=0;right=0;bottom=0;" vertex="1" parent="U3Y6qxCmVOaivF_U4p9_-411">
          <mxGeometry y="135" width="172" height="22" as="geometry" />
        </mxCell>
        <mxCell id="U3Y6qxCmVOaivF_U4p9_-433" value="int" style="shape=partialRectangle;connectable=0;fillColor=none;top=0;left=0;bottom=0;right=0;align=left;spacingLeft=2;overflow=hidden;fontSize=11;" vertex="1" parent="U3Y6qxCmVOaivF_U4p9_-432">
          <mxGeometry width="18" height="22" as="geometry">
            <mxRectangle width="18" height="22" as="alternateBounds" />
          </mxGeometry>
        </mxCell>
        <mxCell id="U3Y6qxCmVOaivF_U4p9_-434" value="discount_id" style="shape=partialRectangle;connectable=0;fillColor=none;top=0;left=0;bottom=0;right=0;align=left;spacingLeft=2;overflow=hidden;fontSize=11;" vertex="1" parent="U3Y6qxCmVOaivF_U4p9_-432">
          <mxGeometry x="18" width="132" height="22" as="geometry">
            <mxRectangle width="132" height="22" as="alternateBounds" />
          </mxGeometry>
        </mxCell>
        <mxCell id="U3Y6qxCmVOaivF_U4p9_-435" value="FK" style="shape=partialRectangle;connectable=0;fillColor=none;top=0;left=0;bottom=0;right=0;align=left;spacingLeft=2;overflow=hidden;fontSize=11;" vertex="1" parent="U3Y6qxCmVOaivF_U4p9_-432">
          <mxGeometry x="150" width="22" height="22" as="geometry">
            <mxRectangle width="22" height="22" as="alternateBounds" />
          </mxGeometry>
        </mxCell>
        <mxCell id="U3Y6qxCmVOaivF_U4p9_-436" style="shape=tableRow;horizontal=0;startSize=0;swimlaneHead=0;swimlaneBody=0;fillColor=none;collapsible=0;dropTarget=0;points=[[0,0.5],[1,0.5]];portConstraint=eastwest;top=0;left=0;right=0;bottom=0;" vertex="1" parent="U3Y6qxCmVOaivF_U4p9_-411">
          <mxGeometry y="157" width="172" height="22" as="geometry" />
        </mxCell>
        <mxCell id="U3Y6qxCmVOaivF_U4p9_-437" value="int" style="shape=partialRectangle;connectable=0;fillColor=none;top=0;left=0;bottom=0;right=0;align=left;spacingLeft=2;overflow=hidden;fontSize=11;" vertex="1" parent="U3Y6qxCmVOaivF_U4p9_-436">
          <mxGeometry width="18" height="22" as="geometry">
            <mxRectangle width="18" height="22" as="alternateBounds" />
          </mxGeometry>
        </mxCell>
        <mxCell id="U3Y6qxCmVOaivF_U4p9_-438" value="shift_activity_id" style="shape=partialRectangle;connectable=0;fillColor=none;top=0;left=0;bottom=0;right=0;align=left;spacingLeft=2;overflow=hidden;fontSize=11;" vertex="1" parent="U3Y6qxCmVOaivF_U4p9_-436">
          <mxGeometry x="18" width="132" height="22" as="geometry">
            <mxRectangle width="132" height="22" as="alternateBounds" />
          </mxGeometry>
        </mxCell>
        <mxCell id="U3Y6qxCmVOaivF_U4p9_-439" value="FK" style="shape=partialRectangle;connectable=0;fillColor=none;top=0;left=0;bottom=0;right=0;align=left;spacingLeft=2;overflow=hidden;fontSize=11;" vertex="1" parent="U3Y6qxCmVOaivF_U4p9_-436">
          <mxGeometry x="150" width="22" height="22" as="geometry">
            <mxRectangle width="22" height="22" as="alternateBounds" />
          </mxGeometry>
        </mxCell>
        <mxCell id="U3Y6qxCmVOaivF_U4p9_-440" value="admin" style="shape=table;startSize=25;container=1;collapsible=0;childLayout=tableLayout;fixedRows=1;rowLines=1;fontStyle=1;align=center;resizeLast=1;" vertex="1" parent="1">
          <mxGeometry x="1360" y="-720" width="100" height="46" as="geometry" />
        </mxCell>
        <mxCell id="U3Y6qxCmVOaivF_U4p9_-441" style="shape=tableRow;horizontal=0;startSize=0;swimlaneHead=0;swimlaneBody=0;fillColor=none;collapsible=0;dropTarget=0;points=[[0,0.5],[1,0.5]];portConstraint=eastwest;top=0;left=0;right=0;bottom=0;" vertex="1" parent="U3Y6qxCmVOaivF_U4p9_-440">
          <mxGeometry y="25" width="100" height="21" as="geometry" />
        </mxCell>
        <mxCell id="U3Y6qxCmVOaivF_U4p9_-442" value="int" style="shape=partialRectangle;connectable=0;fillColor=none;top=0;left=0;bottom=0;right=0;align=left;spacingLeft=2;overflow=hidden;fontSize=11;" vertex="1" parent="U3Y6qxCmVOaivF_U4p9_-441">
          <mxGeometry width="18" height="21" as="geometry">
            <mxRectangle width="18" height="21" as="alternateBounds" />
          </mxGeometry>
        </mxCell>
        <mxCell id="U3Y6qxCmVOaivF_U4p9_-443" value="admin_id" style="shape=partialRectangle;connectable=0;fillColor=none;top=0;left=0;bottom=0;right=0;align=left;spacingLeft=2;overflow=hidden;fontSize=11;" vertex="1" parent="U3Y6qxCmVOaivF_U4p9_-441">
          <mxGeometry x="18" width="60" height="21" as="geometry">
            <mxRectangle width="60" height="21" as="alternateBounds" />
          </mxGeometry>
        </mxCell>
        <mxCell id="U3Y6qxCmVOaivF_U4p9_-444" value="PK" style="shape=partialRectangle;connectable=0;fillColor=none;top=0;left=0;bottom=0;right=0;align=left;spacingLeft=2;overflow=hidden;fontSize=11;" vertex="1" parent="U3Y6qxCmVOaivF_U4p9_-441">
          <mxGeometry x="78" width="22" height="21" as="geometry">
            <mxRectangle width="22" height="21" as="alternateBounds" />
          </mxGeometry>
        </mxCell>
        <mxCell id="U3Y6qxCmVOaivF_U4p9_-445" value="admin_store" style="shape=table;startSize=25;container=1;collapsible=0;childLayout=tableLayout;fixedRows=1;rowLines=1;fontStyle=1;align=center;resizeLast=1;" vertex="1" parent="1">
          <mxGeometry x="1360" y="-630" width="98" height="69" as="geometry" />
        </mxCell>
        <mxCell id="U3Y6qxCmVOaivF_U4p9_-446" style="shape=tableRow;horizontal=0;startSize=0;swimlaneHead=0;swimlaneBody=0;fillColor=none;collapsible=0;dropTarget=0;points=[[0,0.5],[1,0.5]];portConstraint=eastwest;top=0;left=0;right=0;bottom=0;" vertex="1" parent="U3Y6qxCmVOaivF_U4p9_-445">
          <mxGeometry y="25" width="98" height="22" as="geometry" />
        </mxCell>
        <mxCell id="U3Y6qxCmVOaivF_U4p9_-447" value="int" style="shape=partialRectangle;connectable=0;fillColor=none;top=0;left=0;bottom=0;right=0;align=left;spacingLeft=2;overflow=hidden;fontSize=11;" vertex="1" parent="U3Y6qxCmVOaivF_U4p9_-446">
          <mxGeometry width="18" height="22" as="geometry">
            <mxRectangle width="18" height="22" as="alternateBounds" />
          </mxGeometry>
        </mxCell>
        <mxCell id="U3Y6qxCmVOaivF_U4p9_-448" value="admin_id" style="shape=partialRectangle;connectable=0;fillColor=none;top=0;left=0;bottom=0;right=0;align=left;spacingLeft=2;overflow=hidden;fontSize=11;" vertex="1" parent="U3Y6qxCmVOaivF_U4p9_-446">
          <mxGeometry x="18" width="60" height="22" as="geometry">
            <mxRectangle width="60" height="22" as="alternateBounds" />
          </mxGeometry>
        </mxCell>
        <mxCell id="U3Y6qxCmVOaivF_U4p9_-449" value="FK" style="shape=partialRectangle;connectable=0;fillColor=none;top=0;left=0;bottom=0;right=0;align=left;spacingLeft=2;overflow=hidden;fontSize=11;" vertex="1" parent="U3Y6qxCmVOaivF_U4p9_-446">
          <mxGeometry x="78" width="20" height="22" as="geometry">
            <mxRectangle width="20" height="22" as="alternateBounds" />
          </mxGeometry>
        </mxCell>
        <mxCell id="U3Y6qxCmVOaivF_U4p9_-450" style="shape=tableRow;horizontal=0;startSize=0;swimlaneHead=0;swimlaneBody=0;fillColor=none;collapsible=0;dropTarget=0;points=[[0,0.5],[1,0.5]];portConstraint=eastwest;top=0;left=0;right=0;bottom=0;" vertex="1" parent="U3Y6qxCmVOaivF_U4p9_-445">
          <mxGeometry y="47" width="98" height="22" as="geometry" />
        </mxCell>
        <mxCell id="U3Y6qxCmVOaivF_U4p9_-451" value="int" style="shape=partialRectangle;connectable=0;fillColor=none;top=0;left=0;bottom=0;right=0;align=left;spacingLeft=2;overflow=hidden;fontSize=11;" vertex="1" parent="U3Y6qxCmVOaivF_U4p9_-450">
          <mxGeometry width="18" height="22" as="geometry">
            <mxRectangle width="18" height="22" as="alternateBounds" />
          </mxGeometry>
        </mxCell>
        <mxCell id="U3Y6qxCmVOaivF_U4p9_-452" value="store_id" style="shape=partialRectangle;connectable=0;fillColor=none;top=0;left=0;bottom=0;right=0;align=left;spacingLeft=2;overflow=hidden;fontSize=11;" vertex="1" parent="U3Y6qxCmVOaivF_U4p9_-450">
          <mxGeometry x="18" width="60" height="22" as="geometry">
            <mxRectangle width="60" height="22" as="alternateBounds" />
          </mxGeometry>
        </mxCell>
        <mxCell id="U3Y6qxCmVOaivF_U4p9_-453" value="FK" style="shape=partialRectangle;connectable=0;fillColor=none;top=0;left=0;bottom=0;right=0;align=left;spacingLeft=2;overflow=hidden;fontSize=11;" vertex="1" parent="U3Y6qxCmVOaivF_U4p9_-450">
          <mxGeometry x="78" width="20" height="22" as="geometry">
            <mxRectangle width="20" height="22" as="alternateBounds" />
          </mxGeometry>
        </mxCell>
        <mxCell id="U3Y6qxCmVOaivF_U4p9_-454" value="roles" style="shape=table;startSize=25;container=1;collapsible=0;childLayout=tableLayout;fixedRows=1;rowLines=1;fontStyle=1;align=center;resizeLast=1;" vertex="1" parent="1">
          <mxGeometry x="1360" y="-830" width="100" height="69" as="geometry" />
        </mxCell>
        <mxCell id="U3Y6qxCmVOaivF_U4p9_-455" style="shape=tableRow;horizontal=0;startSize=0;swimlaneHead=0;swimlaneBody=0;fillColor=none;collapsible=0;dropTarget=0;points=[[0,0.5],[1,0.5]];portConstraint=eastwest;top=0;left=0;right=0;bottom=0;" vertex="1" parent="U3Y6qxCmVOaivF_U4p9_-454">
          <mxGeometry y="25" width="100" height="22" as="geometry" />
        </mxCell>
        <mxCell id="U3Y6qxCmVOaivF_U4p9_-456" value="int" style="shape=partialRectangle;connectable=0;fillColor=none;top=0;left=0;bottom=0;right=0;align=left;spacingLeft=2;overflow=hidden;fontSize=11;" vertex="1" parent="U3Y6qxCmVOaivF_U4p9_-455">
          <mxGeometry width="18" height="22" as="geometry">
            <mxRectangle width="18" height="22" as="alternateBounds" />
          </mxGeometry>
        </mxCell>
        <mxCell id="U3Y6qxCmVOaivF_U4p9_-457" value="role_id" style="shape=partialRectangle;connectable=0;fillColor=none;top=0;left=0;bottom=0;right=0;align=left;spacingLeft=2;overflow=hidden;fontSize=11;" vertex="1" parent="U3Y6qxCmVOaivF_U4p9_-455">
          <mxGeometry x="18" width="60" height="22" as="geometry">
            <mxRectangle width="60" height="22" as="alternateBounds" />
          </mxGeometry>
        </mxCell>
        <mxCell id="U3Y6qxCmVOaivF_U4p9_-458" value="PK" style="shape=partialRectangle;connectable=0;fillColor=none;top=0;left=0;bottom=0;right=0;align=left;spacingLeft=2;overflow=hidden;fontSize=11;" vertex="1" parent="U3Y6qxCmVOaivF_U4p9_-455">
          <mxGeometry x="78" width="22" height="22" as="geometry">
            <mxRectangle width="22" height="22" as="alternateBounds" />
          </mxGeometry>
        </mxCell>
        <mxCell id="U3Y6qxCmVOaivF_U4p9_-459" style="shape=tableRow;horizontal=0;startSize=0;swimlaneHead=0;swimlaneBody=0;fillColor=none;collapsible=0;dropTarget=0;points=[[0,0.5],[1,0.5]];portConstraint=eastwest;top=0;left=0;right=0;bottom=0;" vertex="1" parent="U3Y6qxCmVOaivF_U4p9_-454">
          <mxGeometry y="47" width="100" height="22" as="geometry" />
        </mxCell>
        <mxCell id="U3Y6qxCmVOaivF_U4p9_-460" value="int" style="shape=partialRectangle;connectable=0;fillColor=none;top=0;left=0;bottom=0;right=0;align=left;spacingLeft=2;overflow=hidden;fontSize=11;" vertex="1" parent="U3Y6qxCmVOaivF_U4p9_-459">
          <mxGeometry width="18" height="22" as="geometry">
            <mxRectangle width="18" height="22" as="alternateBounds" />
          </mxGeometry>
        </mxCell>
        <mxCell id="U3Y6qxCmVOaivF_U4p9_-461" value="admin_id" style="shape=partialRectangle;connectable=0;fillColor=none;top=0;left=0;bottom=0;right=0;align=left;spacingLeft=2;overflow=hidden;fontSize=11;" vertex="1" parent="U3Y6qxCmVOaivF_U4p9_-459">
          <mxGeometry x="18" width="60" height="22" as="geometry">
            <mxRectangle width="60" height="22" as="alternateBounds" />
          </mxGeometry>
        </mxCell>
        <mxCell id="U3Y6qxCmVOaivF_U4p9_-462" value="FK" style="shape=partialRectangle;connectable=0;fillColor=none;top=0;left=0;bottom=0;right=0;align=left;spacingLeft=2;overflow=hidden;fontSize=11;" vertex="1" parent="U3Y6qxCmVOaivF_U4p9_-459">
          <mxGeometry x="78" width="22" height="22" as="geometry">
            <mxRectangle width="22" height="22" as="alternateBounds" />
          </mxGeometry>
        </mxCell>
        <mxCell id="U3Y6qxCmVOaivF_U4p9_-463" value="staff" style="shape=table;startSize=25;container=1;collapsible=0;childLayout=tableLayout;fixedRows=1;rowLines=1;fontStyle=1;align=center;resizeLast=1;" vertex="1" parent="1">
          <mxGeometry x="2300" y="-96" width="100" height="46" as="geometry" />
        </mxCell>
        <mxCell id="U3Y6qxCmVOaivF_U4p9_-464" style="shape=tableRow;horizontal=0;startSize=0;swimlaneHead=0;swimlaneBody=0;fillColor=none;collapsible=0;dropTarget=0;points=[[0,0.5],[1,0.5]];portConstraint=eastwest;top=0;left=0;right=0;bottom=0;" vertex="1" parent="U3Y6qxCmVOaivF_U4p9_-463">
          <mxGeometry y="25" width="100" height="21" as="geometry" />
        </mxCell>
        <mxCell id="U3Y6qxCmVOaivF_U4p9_-465" value="int" style="shape=partialRectangle;connectable=0;fillColor=none;top=0;left=0;bottom=0;right=0;align=left;spacingLeft=2;overflow=hidden;fontSize=11;" vertex="1" parent="U3Y6qxCmVOaivF_U4p9_-464">
          <mxGeometry width="18" height="21" as="geometry">
            <mxRectangle width="18" height="21" as="alternateBounds" />
          </mxGeometry>
        </mxCell>
        <mxCell id="U3Y6qxCmVOaivF_U4p9_-466" value="staff_id" style="shape=partialRectangle;connectable=0;fillColor=none;top=0;left=0;bottom=0;right=0;align=left;spacingLeft=2;overflow=hidden;fontSize=11;" vertex="1" parent="U3Y6qxCmVOaivF_U4p9_-464">
          <mxGeometry x="18" width="60" height="21" as="geometry">
            <mxRectangle width="60" height="21" as="alternateBounds" />
          </mxGeometry>
        </mxCell>
        <mxCell id="U3Y6qxCmVOaivF_U4p9_-467" value="PK" style="shape=partialRectangle;connectable=0;fillColor=none;top=0;left=0;bottom=0;right=0;align=left;spacingLeft=2;overflow=hidden;fontSize=11;" vertex="1" parent="U3Y6qxCmVOaivF_U4p9_-464">
          <mxGeometry x="78" width="22" height="21" as="geometry">
            <mxRectangle width="22" height="21" as="alternateBounds" />
          </mxGeometry>
        </mxCell>
        <mxCell id="U3Y6qxCmVOaivF_U4p9_-468" value="store_staff" style="shape=table;startSize=25;container=1;collapsible=0;childLayout=tableLayout;fixedRows=1;rowLines=1;fontStyle=1;align=center;resizeLast=1;" vertex="1" parent="1">
          <mxGeometry x="2070" y="-340" width="100" height="69" as="geometry" />
        </mxCell>
        <mxCell id="U3Y6qxCmVOaivF_U4p9_-469" style="shape=tableRow;horizontal=0;startSize=0;swimlaneHead=0;swimlaneBody=0;fillColor=none;collapsible=0;dropTarget=0;points=[[0,0.5],[1,0.5]];portConstraint=eastwest;top=0;left=0;right=0;bottom=0;" vertex="1" parent="U3Y6qxCmVOaivF_U4p9_-468">
          <mxGeometry y="25" width="100" height="22" as="geometry" />
        </mxCell>
        <mxCell id="U3Y6qxCmVOaivF_U4p9_-470" value="int" style="shape=partialRectangle;connectable=0;fillColor=none;top=0;left=0;bottom=0;right=0;align=left;spacingLeft=2;overflow=hidden;fontSize=11;" vertex="1" parent="U3Y6qxCmVOaivF_U4p9_-469">
          <mxGeometry width="18" height="22" as="geometry">
            <mxRectangle width="18" height="22" as="alternateBounds" />
          </mxGeometry>
        </mxCell>
        <mxCell id="U3Y6qxCmVOaivF_U4p9_-471" value="store_id" style="shape=partialRectangle;connectable=0;fillColor=none;top=0;left=0;bottom=0;right=0;align=left;spacingLeft=2;overflow=hidden;fontSize=11;" vertex="1" parent="U3Y6qxCmVOaivF_U4p9_-469">
          <mxGeometry x="18" width="60" height="22" as="geometry">
            <mxRectangle width="60" height="22" as="alternateBounds" />
          </mxGeometry>
        </mxCell>
        <mxCell id="U3Y6qxCmVOaivF_U4p9_-472" value="FK" style="shape=partialRectangle;connectable=0;fillColor=none;top=0;left=0;bottom=0;right=0;align=left;spacingLeft=2;overflow=hidden;fontSize=11;" vertex="1" parent="U3Y6qxCmVOaivF_U4p9_-469">
          <mxGeometry x="78" width="22" height="22" as="geometry">
            <mxRectangle width="22" height="22" as="alternateBounds" />
          </mxGeometry>
        </mxCell>
        <mxCell id="U3Y6qxCmVOaivF_U4p9_-473" style="shape=tableRow;horizontal=0;startSize=0;swimlaneHead=0;swimlaneBody=0;fillColor=none;collapsible=0;dropTarget=0;points=[[0,0.5],[1,0.5]];portConstraint=eastwest;top=0;left=0;right=0;bottom=0;" vertex="1" parent="U3Y6qxCmVOaivF_U4p9_-468">
          <mxGeometry y="47" width="100" height="22" as="geometry" />
        </mxCell>
        <mxCell id="U3Y6qxCmVOaivF_U4p9_-474" value="int" style="shape=partialRectangle;connectable=0;fillColor=none;top=0;left=0;bottom=0;right=0;align=left;spacingLeft=2;overflow=hidden;fontSize=11;" vertex="1" parent="U3Y6qxCmVOaivF_U4p9_-473">
          <mxGeometry width="18" height="22" as="geometry">
            <mxRectangle width="18" height="22" as="alternateBounds" />
          </mxGeometry>
        </mxCell>
        <mxCell id="U3Y6qxCmVOaivF_U4p9_-475" value="staff_id" style="shape=partialRectangle;connectable=0;fillColor=none;top=0;left=0;bottom=0;right=0;align=left;spacingLeft=2;overflow=hidden;fontSize=11;" vertex="1" parent="U3Y6qxCmVOaivF_U4p9_-473">
          <mxGeometry x="18" width="60" height="22" as="geometry">
            <mxRectangle width="60" height="22" as="alternateBounds" />
          </mxGeometry>
        </mxCell>
        <mxCell id="U3Y6qxCmVOaivF_U4p9_-476" value="FK" style="shape=partialRectangle;connectable=0;fillColor=none;top=0;left=0;bottom=0;right=0;align=left;spacingLeft=2;overflow=hidden;fontSize=11;" vertex="1" parent="U3Y6qxCmVOaivF_U4p9_-473">
          <mxGeometry x="78" width="22" height="22" as="geometry">
            <mxRectangle width="22" height="22" as="alternateBounds" />
          </mxGeometry>
        </mxCell>
        <mxCell id="U3Y6qxCmVOaivF_U4p9_-477" value="reservation_menu" style="shape=table;startSize=25;container=1;collapsible=0;childLayout=tableLayout;fixedRows=1;rowLines=1;fontStyle=1;align=center;resizeLast=1;" vertex="1" parent="1">
          <mxGeometry x="810" y="560" width="154" height="91" as="geometry" />
        </mxCell>
        <mxCell id="U3Y6qxCmVOaivF_U4p9_-478" style="shape=tableRow;horizontal=0;startSize=0;swimlaneHead=0;swimlaneBody=0;fillColor=none;collapsible=0;dropTarget=0;points=[[0,0.5],[1,0.5]];portConstraint=eastwest;top=0;left=0;right=0;bottom=0;" vertex="1" parent="U3Y6qxCmVOaivF_U4p9_-477">
          <mxGeometry y="25" width="154" height="22" as="geometry" />
        </mxCell>
        <mxCell id="U3Y6qxCmVOaivF_U4p9_-479" value="int" style="shape=partialRectangle;connectable=0;fillColor=none;top=0;left=0;bottom=0;right=0;align=left;spacingLeft=2;overflow=hidden;fontSize=11;" vertex="1" parent="U3Y6qxCmVOaivF_U4p9_-478">
          <mxGeometry width="18" height="22" as="geometry">
            <mxRectangle width="18" height="22" as="alternateBounds" />
          </mxGeometry>
        </mxCell>
        <mxCell id="U3Y6qxCmVOaivF_U4p9_-480" value="reservation_menu_id" style="shape=partialRectangle;connectable=0;fillColor=none;top=0;left=0;bottom=0;right=0;align=left;spacingLeft=2;overflow=hidden;fontSize=11;" vertex="1" parent="U3Y6qxCmVOaivF_U4p9_-478">
          <mxGeometry x="18" width="114" height="22" as="geometry">
            <mxRectangle width="114" height="22" as="alternateBounds" />
          </mxGeometry>
        </mxCell>
        <mxCell id="U3Y6qxCmVOaivF_U4p9_-481" value="PK" style="shape=partialRectangle;connectable=0;fillColor=none;top=0;left=0;bottom=0;right=0;align=left;spacingLeft=2;overflow=hidden;fontSize=11;" vertex="1" parent="U3Y6qxCmVOaivF_U4p9_-478">
          <mxGeometry x="132" width="22" height="22" as="geometry">
            <mxRectangle width="22" height="22" as="alternateBounds" />
          </mxGeometry>
        </mxCell>
        <mxCell id="U3Y6qxCmVOaivF_U4p9_-482" style="shape=tableRow;horizontal=0;startSize=0;swimlaneHead=0;swimlaneBody=0;fillColor=none;collapsible=0;dropTarget=0;points=[[0,0.5],[1,0.5]];portConstraint=eastwest;top=0;left=0;right=0;bottom=0;" vertex="1" parent="U3Y6qxCmVOaivF_U4p9_-477">
          <mxGeometry y="47" width="154" height="22" as="geometry" />
        </mxCell>
        <mxCell id="U3Y6qxCmVOaivF_U4p9_-483" value="int" style="shape=partialRectangle;connectable=0;fillColor=none;top=0;left=0;bottom=0;right=0;align=left;spacingLeft=2;overflow=hidden;fontSize=11;" vertex="1" parent="U3Y6qxCmVOaivF_U4p9_-482">
          <mxGeometry width="18" height="22" as="geometry">
            <mxRectangle width="18" height="22" as="alternateBounds" />
          </mxGeometry>
        </mxCell>
        <mxCell id="U3Y6qxCmVOaivF_U4p9_-484" value="reservation_id" style="shape=partialRectangle;connectable=0;fillColor=none;top=0;left=0;bottom=0;right=0;align=left;spacingLeft=2;overflow=hidden;fontSize=11;" vertex="1" parent="U3Y6qxCmVOaivF_U4p9_-482">
          <mxGeometry x="18" width="114" height="22" as="geometry">
            <mxRectangle width="114" height="22" as="alternateBounds" />
          </mxGeometry>
        </mxCell>
        <mxCell id="U3Y6qxCmVOaivF_U4p9_-485" value="FK" style="shape=partialRectangle;connectable=0;fillColor=none;top=0;left=0;bottom=0;right=0;align=left;spacingLeft=2;overflow=hidden;fontSize=11;" vertex="1" parent="U3Y6qxCmVOaivF_U4p9_-482">
          <mxGeometry x="132" width="22" height="22" as="geometry">
            <mxRectangle width="22" height="22" as="alternateBounds" />
          </mxGeometry>
        </mxCell>
        <mxCell id="U3Y6qxCmVOaivF_U4p9_-486" style="shape=tableRow;horizontal=0;startSize=0;swimlaneHead=0;swimlaneBody=0;fillColor=none;collapsible=0;dropTarget=0;points=[[0,0.5],[1,0.5]];portConstraint=eastwest;top=0;left=0;right=0;bottom=0;" vertex="1" parent="U3Y6qxCmVOaivF_U4p9_-477">
          <mxGeometry y="69" width="154" height="22" as="geometry" />
        </mxCell>
        <mxCell id="U3Y6qxCmVOaivF_U4p9_-487" value="int" style="shape=partialRectangle;connectable=0;fillColor=none;top=0;left=0;bottom=0;right=0;align=left;spacingLeft=2;overflow=hidden;fontSize=11;" vertex="1" parent="U3Y6qxCmVOaivF_U4p9_-486">
          <mxGeometry width="18" height="22" as="geometry">
            <mxRectangle width="18" height="22" as="alternateBounds" />
          </mxGeometry>
        </mxCell>
        <mxCell id="U3Y6qxCmVOaivF_U4p9_-488" value="menu_id" style="shape=partialRectangle;connectable=0;fillColor=none;top=0;left=0;bottom=0;right=0;align=left;spacingLeft=2;overflow=hidden;fontSize=11;" vertex="1" parent="U3Y6qxCmVOaivF_U4p9_-486">
          <mxGeometry x="18" width="114" height="22" as="geometry">
            <mxRectangle width="114" height="22" as="alternateBounds" />
          </mxGeometry>
        </mxCell>
        <mxCell id="U3Y6qxCmVOaivF_U4p9_-489" value="FK" style="shape=partialRectangle;connectable=0;fillColor=none;top=0;left=0;bottom=0;right=0;align=left;spacingLeft=2;overflow=hidden;fontSize=11;" vertex="1" parent="U3Y6qxCmVOaivF_U4p9_-486">
          <mxGeometry x="132" width="22" height="22" as="geometry">
            <mxRectangle width="22" height="22" as="alternateBounds" />
          </mxGeometry>
        </mxCell>
        <mxCell id="U3Y6qxCmVOaivF_U4p9_-511" value="mst_goods" style="shape=table;startSize=25;container=1;collapsible=0;childLayout=tableLayout;fixedRows=1;rowLines=1;fontStyle=1;align=center;resizeLast=1;" vertex="1" parent="1">
          <mxGeometry x="600" y="379" width="108" height="91" as="geometry" />
        </mxCell>
        <mxCell id="U3Y6qxCmVOaivF_U4p9_-512" style="shape=tableRow;horizontal=0;startSize=0;swimlaneHead=0;swimlaneBody=0;fillColor=none;collapsible=0;dropTarget=0;points=[[0,0.5],[1,0.5]];portConstraint=eastwest;top=0;left=0;right=0;bottom=0;" vertex="1" parent="U3Y6qxCmVOaivF_U4p9_-511">
          <mxGeometry y="25" width="108" height="22" as="geometry" />
        </mxCell>
        <mxCell id="U3Y6qxCmVOaivF_U4p9_-513" value="int" style="shape=partialRectangle;connectable=0;fillColor=none;top=0;left=0;bottom=0;right=0;align=left;spacingLeft=2;overflow=hidden;fontSize=11;" vertex="1" parent="U3Y6qxCmVOaivF_U4p9_-512">
          <mxGeometry width="18" height="22" as="geometry">
            <mxRectangle width="18" height="22" as="alternateBounds" />
          </mxGeometry>
        </mxCell>
        <mxCell id="U3Y6qxCmVOaivF_U4p9_-514" value="goods_id" style="shape=partialRectangle;connectable=0;fillColor=none;top=0;left=0;bottom=0;right=0;align=left;spacingLeft=2;overflow=hidden;fontSize=11;" vertex="1" parent="U3Y6qxCmVOaivF_U4p9_-512">
          <mxGeometry x="18" width="68" height="22" as="geometry">
            <mxRectangle width="68" height="22" as="alternateBounds" />
          </mxGeometry>
        </mxCell>
        <mxCell id="U3Y6qxCmVOaivF_U4p9_-515" value="PK" style="shape=partialRectangle;connectable=0;fillColor=none;top=0;left=0;bottom=0;right=0;align=left;spacingLeft=2;overflow=hidden;fontSize=11;" vertex="1" parent="U3Y6qxCmVOaivF_U4p9_-512">
          <mxGeometry x="86" width="22" height="22" as="geometry">
            <mxRectangle width="22" height="22" as="alternateBounds" />
          </mxGeometry>
        </mxCell>
        <mxCell id="U3Y6qxCmVOaivF_U4p9_-516" style="shape=tableRow;horizontal=0;startSize=0;swimlaneHead=0;swimlaneBody=0;fillColor=none;collapsible=0;dropTarget=0;points=[[0,0.5],[1,0.5]];portConstraint=eastwest;top=0;left=0;right=0;bottom=0;" vertex="1" parent="U3Y6qxCmVOaivF_U4p9_-511">
          <mxGeometry y="47" width="108" height="22" as="geometry" />
        </mxCell>
        <mxCell id="U3Y6qxCmVOaivF_U4p9_-517" value="int" style="shape=partialRectangle;connectable=0;fillColor=none;top=0;left=0;bottom=0;right=0;align=left;spacingLeft=2;overflow=hidden;fontSize=11;" vertex="1" parent="U3Y6qxCmVOaivF_U4p9_-516">
          <mxGeometry width="18" height="22" as="geometry">
            <mxRectangle width="18" height="22" as="alternateBounds" />
          </mxGeometry>
        </mxCell>
        <mxCell id="U3Y6qxCmVOaivF_U4p9_-518" value="store_id" style="shape=partialRectangle;connectable=0;fillColor=none;top=0;left=0;bottom=0;right=0;align=left;spacingLeft=2;overflow=hidden;fontSize=11;" vertex="1" parent="U3Y6qxCmVOaivF_U4p9_-516">
          <mxGeometry x="18" width="68" height="22" as="geometry">
            <mxRectangle width="68" height="22" as="alternateBounds" />
          </mxGeometry>
        </mxCell>
        <mxCell id="U3Y6qxCmVOaivF_U4p9_-519" value="FK" style="shape=partialRectangle;connectable=0;fillColor=none;top=0;left=0;bottom=0;right=0;align=left;spacingLeft=2;overflow=hidden;fontSize=11;" vertex="1" parent="U3Y6qxCmVOaivF_U4p9_-516">
          <mxGeometry x="86" width="22" height="22" as="geometry">
            <mxRectangle width="22" height="22" as="alternateBounds" />
          </mxGeometry>
        </mxCell>
        <mxCell id="U3Y6qxCmVOaivF_U4p9_-520" style="shape=tableRow;horizontal=0;startSize=0;swimlaneHead=0;swimlaneBody=0;fillColor=none;collapsible=0;dropTarget=0;points=[[0,0.5],[1,0.5]];portConstraint=eastwest;top=0;left=0;right=0;bottom=0;" vertex="1" parent="U3Y6qxCmVOaivF_U4p9_-511">
          <mxGeometry y="69" width="108" height="22" as="geometry" />
        </mxCell>
        <mxCell id="U3Y6qxCmVOaivF_U4p9_-521" value="int" style="shape=partialRectangle;connectable=0;fillColor=none;top=0;left=0;bottom=0;right=0;align=left;spacingLeft=2;overflow=hidden;fontSize=11;" vertex="1" parent="U3Y6qxCmVOaivF_U4p9_-520">
          <mxGeometry width="18" height="22" as="geometry">
            <mxRectangle width="18" height="22" as="alternateBounds" />
          </mxGeometry>
        </mxCell>
        <mxCell id="U3Y6qxCmVOaivF_U4p9_-522" value="category_id" style="shape=partialRectangle;connectable=0;fillColor=none;top=0;left=0;bottom=0;right=0;align=left;spacingLeft=2;overflow=hidden;fontSize=11;" vertex="1" parent="U3Y6qxCmVOaivF_U4p9_-520">
          <mxGeometry x="18" width="68" height="22" as="geometry">
            <mxRectangle width="68" height="22" as="alternateBounds" />
          </mxGeometry>
        </mxCell>
        <mxCell id="U3Y6qxCmVOaivF_U4p9_-523" value="FK" style="shape=partialRectangle;connectable=0;fillColor=none;top=0;left=0;bottom=0;right=0;align=left;spacingLeft=2;overflow=hidden;fontSize=11;" vertex="1" parent="U3Y6qxCmVOaivF_U4p9_-520">
          <mxGeometry x="86" width="22" height="22" as="geometry">
            <mxRectangle width="22" height="22" as="alternateBounds" />
          </mxGeometry>
        </mxCell>
        <mxCell id="U3Y6qxCmVOaivF_U4p9_-524" value="reservation_goods" style="shape=table;startSize=25;container=1;collapsible=0;childLayout=tableLayout;fixedRows=1;rowLines=1;fontStyle=1;align=center;resizeLast=1;" vertex="1" parent="1">
          <mxGeometry x="600" y="560" width="160" height="91" as="geometry" />
        </mxCell>
        <mxCell id="U3Y6qxCmVOaivF_U4p9_-525" style="shape=tableRow;horizontal=0;startSize=0;swimlaneHead=0;swimlaneBody=0;fillColor=none;collapsible=0;dropTarget=0;points=[[0,0.5],[1,0.5]];portConstraint=eastwest;top=0;left=0;right=0;bottom=0;" vertex="1" parent="U3Y6qxCmVOaivF_U4p9_-524">
          <mxGeometry y="25" width="160" height="22" as="geometry" />
        </mxCell>
        <mxCell id="U3Y6qxCmVOaivF_U4p9_-526" value="int" style="shape=partialRectangle;connectable=0;fillColor=none;top=0;left=0;bottom=0;right=0;align=left;spacingLeft=2;overflow=hidden;fontSize=11;" vertex="1" parent="U3Y6qxCmVOaivF_U4p9_-525">
          <mxGeometry width="18" height="22" as="geometry">
            <mxRectangle width="18" height="22" as="alternateBounds" />
          </mxGeometry>
        </mxCell>
        <mxCell id="U3Y6qxCmVOaivF_U4p9_-527" value="reservation_goods_id" style="shape=partialRectangle;connectable=0;fillColor=none;top=0;left=0;bottom=0;right=0;align=left;spacingLeft=2;overflow=hidden;fontSize=11;" vertex="1" parent="U3Y6qxCmVOaivF_U4p9_-525">
          <mxGeometry x="18" width="120" height="22" as="geometry">
            <mxRectangle width="120" height="22" as="alternateBounds" />
          </mxGeometry>
        </mxCell>
        <mxCell id="U3Y6qxCmVOaivF_U4p9_-528" value="PK" style="shape=partialRectangle;connectable=0;fillColor=none;top=0;left=0;bottom=0;right=0;align=left;spacingLeft=2;overflow=hidden;fontSize=11;" vertex="1" parent="U3Y6qxCmVOaivF_U4p9_-525">
          <mxGeometry x="138" width="22" height="22" as="geometry">
            <mxRectangle width="22" height="22" as="alternateBounds" />
          </mxGeometry>
        </mxCell>
        <mxCell id="U3Y6qxCmVOaivF_U4p9_-529" style="shape=tableRow;horizontal=0;startSize=0;swimlaneHead=0;swimlaneBody=0;fillColor=none;collapsible=0;dropTarget=0;points=[[0,0.5],[1,0.5]];portConstraint=eastwest;top=0;left=0;right=0;bottom=0;" vertex="1" parent="U3Y6qxCmVOaivF_U4p9_-524">
          <mxGeometry y="47" width="160" height="22" as="geometry" />
        </mxCell>
        <mxCell id="U3Y6qxCmVOaivF_U4p9_-530" value="int" style="shape=partialRectangle;connectable=0;fillColor=none;top=0;left=0;bottom=0;right=0;align=left;spacingLeft=2;overflow=hidden;fontSize=11;" vertex="1" parent="U3Y6qxCmVOaivF_U4p9_-529">
          <mxGeometry width="18" height="22" as="geometry">
            <mxRectangle width="18" height="22" as="alternateBounds" />
          </mxGeometry>
        </mxCell>
        <mxCell id="U3Y6qxCmVOaivF_U4p9_-531" value="reservation_id" style="shape=partialRectangle;connectable=0;fillColor=none;top=0;left=0;bottom=0;right=0;align=left;spacingLeft=2;overflow=hidden;fontSize=11;" vertex="1" parent="U3Y6qxCmVOaivF_U4p9_-529">
          <mxGeometry x="18" width="120" height="22" as="geometry">
            <mxRectangle width="120" height="22" as="alternateBounds" />
          </mxGeometry>
        </mxCell>
        <mxCell id="U3Y6qxCmVOaivF_U4p9_-532" value="FK" style="shape=partialRectangle;connectable=0;fillColor=none;top=0;left=0;bottom=0;right=0;align=left;spacingLeft=2;overflow=hidden;fontSize=11;" vertex="1" parent="U3Y6qxCmVOaivF_U4p9_-529">
          <mxGeometry x="138" width="22" height="22" as="geometry">
            <mxRectangle width="22" height="22" as="alternateBounds" />
          </mxGeometry>
        </mxCell>
        <mxCell id="U3Y6qxCmVOaivF_U4p9_-533" style="shape=tableRow;horizontal=0;startSize=0;swimlaneHead=0;swimlaneBody=0;fillColor=none;collapsible=0;dropTarget=0;points=[[0,0.5],[1,0.5]];portConstraint=eastwest;top=0;left=0;right=0;bottom=0;" vertex="1" parent="U3Y6qxCmVOaivF_U4p9_-524">
          <mxGeometry y="69" width="160" height="22" as="geometry" />
        </mxCell>
        <mxCell id="U3Y6qxCmVOaivF_U4p9_-534" value="int" style="shape=partialRectangle;connectable=0;fillColor=none;top=0;left=0;bottom=0;right=0;align=left;spacingLeft=2;overflow=hidden;fontSize=11;" vertex="1" parent="U3Y6qxCmVOaivF_U4p9_-533">
          <mxGeometry width="18" height="22" as="geometry">
            <mxRectangle width="18" height="22" as="alternateBounds" />
          </mxGeometry>
        </mxCell>
        <mxCell id="U3Y6qxCmVOaivF_U4p9_-535" value="goods_id" style="shape=partialRectangle;connectable=0;fillColor=none;top=0;left=0;bottom=0;right=0;align=left;spacingLeft=2;overflow=hidden;fontSize=11;" vertex="1" parent="U3Y6qxCmVOaivF_U4p9_-533">
          <mxGeometry x="18" width="120" height="22" as="geometry">
            <mxRectangle width="120" height="22" as="alternateBounds" />
          </mxGeometry>
        </mxCell>
        <mxCell id="U3Y6qxCmVOaivF_U4p9_-536" value="FK" style="shape=partialRectangle;connectable=0;fillColor=none;top=0;left=0;bottom=0;right=0;align=left;spacingLeft=2;overflow=hidden;fontSize=11;" vertex="1" parent="U3Y6qxCmVOaivF_U4p9_-533">
          <mxGeometry x="138" width="22" height="22" as="geometry">
            <mxRectangle width="22" height="22" as="alternateBounds" />
          </mxGeometry>
        </mxCell>
        <mxCell id="U3Y6qxCmVOaivF_U4p9_-537" value="visits" style="shape=table;startSize=25;container=1;collapsible=0;childLayout=tableLayout;fixedRows=1;rowLines=1;fontStyle=1;align=center;resizeLast=1;" vertex="1" parent="1">
          <mxGeometry x="1810" y="-470" width="110" height="91" as="geometry" />
        </mxCell>
        <mxCell id="U3Y6qxCmVOaivF_U4p9_-538" style="shape=tableRow;horizontal=0;startSize=0;swimlaneHead=0;swimlaneBody=0;fillColor=none;collapsible=0;dropTarget=0;points=[[0,0.5],[1,0.5]];portConstraint=eastwest;top=0;left=0;right=0;bottom=0;" vertex="1" parent="U3Y6qxCmVOaivF_U4p9_-537">
          <mxGeometry y="25" width="110" height="22" as="geometry" />
        </mxCell>
        <mxCell id="U3Y6qxCmVOaivF_U4p9_-539" value="int" style="shape=partialRectangle;connectable=0;fillColor=none;top=0;left=0;bottom=0;right=0;align=left;spacingLeft=2;overflow=hidden;fontSize=11;" vertex="1" parent="U3Y6qxCmVOaivF_U4p9_-538">
          <mxGeometry width="18" height="22" as="geometry">
            <mxRectangle width="18" height="22" as="alternateBounds" />
          </mxGeometry>
        </mxCell>
        <mxCell id="U3Y6qxCmVOaivF_U4p9_-540" value="visits_id" style="shape=partialRectangle;connectable=0;fillColor=none;top=0;left=0;bottom=0;right=0;align=left;spacingLeft=2;overflow=hidden;fontSize=11;" vertex="1" parent="U3Y6qxCmVOaivF_U4p9_-538">
          <mxGeometry x="18" width="70" height="22" as="geometry">
            <mxRectangle width="70" height="22" as="alternateBounds" />
          </mxGeometry>
        </mxCell>
        <mxCell id="U3Y6qxCmVOaivF_U4p9_-541" value="PK" style="shape=partialRectangle;connectable=0;fillColor=none;top=0;left=0;bottom=0;right=0;align=left;spacingLeft=2;overflow=hidden;fontSize=11;" vertex="1" parent="U3Y6qxCmVOaivF_U4p9_-538">
          <mxGeometry x="88" width="22" height="22" as="geometry">
            <mxRectangle width="22" height="22" as="alternateBounds" />
          </mxGeometry>
        </mxCell>
        <mxCell id="U3Y6qxCmVOaivF_U4p9_-542" style="shape=tableRow;horizontal=0;startSize=0;swimlaneHead=0;swimlaneBody=0;fillColor=none;collapsible=0;dropTarget=0;points=[[0,0.5],[1,0.5]];portConstraint=eastwest;top=0;left=0;right=0;bottom=0;" vertex="1" parent="U3Y6qxCmVOaivF_U4p9_-537">
          <mxGeometry y="47" width="110" height="22" as="geometry" />
        </mxCell>
        <mxCell id="U3Y6qxCmVOaivF_U4p9_-543" value="int" style="shape=partialRectangle;connectable=0;fillColor=none;top=0;left=0;bottom=0;right=0;align=left;spacingLeft=2;overflow=hidden;fontSize=11;" vertex="1" parent="U3Y6qxCmVOaivF_U4p9_-542">
          <mxGeometry width="18" height="22" as="geometry">
            <mxRectangle width="18" height="22" as="alternateBounds" />
          </mxGeometry>
        </mxCell>
        <mxCell id="U3Y6qxCmVOaivF_U4p9_-544" value="store_id" style="shape=partialRectangle;connectable=0;fillColor=none;top=0;left=0;bottom=0;right=0;align=left;spacingLeft=2;overflow=hidden;fontSize=11;" vertex="1" parent="U3Y6qxCmVOaivF_U4p9_-542">
          <mxGeometry x="18" width="70" height="22" as="geometry">
            <mxRectangle width="70" height="22" as="alternateBounds" />
          </mxGeometry>
        </mxCell>
        <mxCell id="U3Y6qxCmVOaivF_U4p9_-545" value="FK" style="shape=partialRectangle;connectable=0;fillColor=none;top=0;left=0;bottom=0;right=0;align=left;spacingLeft=2;overflow=hidden;fontSize=11;" vertex="1" parent="U3Y6qxCmVOaivF_U4p9_-542">
          <mxGeometry x="88" width="22" height="22" as="geometry">
            <mxRectangle width="22" height="22" as="alternateBounds" />
          </mxGeometry>
        </mxCell>
        <mxCell id="U3Y6qxCmVOaivF_U4p9_-546" style="shape=tableRow;horizontal=0;startSize=0;swimlaneHead=0;swimlaneBody=0;fillColor=none;collapsible=0;dropTarget=0;points=[[0,0.5],[1,0.5]];portConstraint=eastwest;top=0;left=0;right=0;bottom=0;" vertex="1" parent="U3Y6qxCmVOaivF_U4p9_-537">
          <mxGeometry y="69" width="110" height="22" as="geometry" />
        </mxCell>
        <mxCell id="U3Y6qxCmVOaivF_U4p9_-547" value="int" style="shape=partialRectangle;connectable=0;fillColor=none;top=0;left=0;bottom=0;right=0;align=left;spacingLeft=2;overflow=hidden;fontSize=11;" vertex="1" parent="U3Y6qxCmVOaivF_U4p9_-546">
          <mxGeometry width="18" height="22" as="geometry">
            <mxRectangle width="18" height="22" as="alternateBounds" />
          </mxGeometry>
        </mxCell>
        <mxCell id="U3Y6qxCmVOaivF_U4p9_-548" value="customer_id" style="shape=partialRectangle;connectable=0;fillColor=none;top=0;left=0;bottom=0;right=0;align=left;spacingLeft=2;overflow=hidden;fontSize=11;" vertex="1" parent="U3Y6qxCmVOaivF_U4p9_-546">
          <mxGeometry x="18" width="70" height="22" as="geometry">
            <mxRectangle width="70" height="22" as="alternateBounds" />
          </mxGeometry>
        </mxCell>
        <mxCell id="U3Y6qxCmVOaivF_U4p9_-549" value="FK" style="shape=partialRectangle;connectable=0;fillColor=none;top=0;left=0;bottom=0;right=0;align=left;spacingLeft=2;overflow=hidden;fontSize=11;" vertex="1" parent="U3Y6qxCmVOaivF_U4p9_-546">
          <mxGeometry x="88" width="22" height="22" as="geometry">
            <mxRectangle width="22" height="22" as="alternateBounds" />
          </mxGeometry>
        </mxCell>
        <mxCell id="U3Y6qxCmVOaivF_U4p9_-559" value="FK: store_id" style="curved=1;startArrow=ERmandOne;startSize=10;;endArrow=ERoneToMany;endSize=10;;rounded=0;" edge="1" parent="1" source="U3Y6qxCmVOaivF_U4p9_-306" target="U3Y6qxCmVOaivF_U4p9_-311">
          <mxGeometry relative="1" as="geometry">
            <Array as="points">
              <mxPoint x="1230" y="-540" />
            </Array>
          </mxGeometry>
        </mxCell>
        <mxCell id="U3Y6qxCmVOaivF_U4p9_-560" value="FK: store_id" style="curved=1;startArrow=ERmandOne;startSize=10;;endArrow=ERoneToMany;endSize=10;;rounded=0;" edge="1" parent="1" source="U3Y6qxCmVOaivF_U4p9_-306" target="U3Y6qxCmVOaivF_U4p9_-320">
          <mxGeometry relative="1" as="geometry">
            <Array as="points">
              <mxPoint x="1190" y="-470" />
            </Array>
          </mxGeometry>
        </mxCell>
        <mxCell id="U3Y6qxCmVOaivF_U4p9_-563" value="FK: store_id" style="curved=1;startArrow=ERmandOne;startSize=10;;endArrow=ERoneToMany;endSize=10;;rounded=0;" edge="1" parent="1" source="U3Y6qxCmVOaivF_U4p9_-306" target="U3Y6qxCmVOaivF_U4p9_-338">
          <mxGeometry relative="1" as="geometry">
            <Array as="points">
              <mxPoint x="1320" y="-400" />
            </Array>
          </mxGeometry>
        </mxCell>
        <mxCell id="U3Y6qxCmVOaivF_U4p9_-564" value="FK: store_id" style="curved=1;startArrow=ERmandOne;startSize=10;;endArrow=ERoneToMany;endSize=10;;rounded=0;entryDx=0;entryDy=0;entryX=0;entryY=0.5;" edge="1" parent="1" source="U3Y6qxCmVOaivF_U4p9_-306" target="U3Y6qxCmVOaivF_U4p9_-362">
          <mxGeometry relative="1" as="geometry" />
        </mxCell>
        <mxCell id="U3Y6qxCmVOaivF_U4p9_-565" value="FK: customer_id" style="curved=1;startArrow=ERmandOne;startSize=10;;endArrow=ERoneToMany;endSize=10;;rounded=0;exitDx=0;exitDy=0;entryDx=0;entryDy=0;entryX=1;entryY=0.5;" edge="1" parent="1" source="U3Y6qxCmVOaivF_U4p9_-357" target="U3Y6qxCmVOaivF_U4p9_-366">
          <mxGeometry relative="1" as="geometry" />
        </mxCell>
        <mxCell id="U3Y6qxCmVOaivF_U4p9_-566" value="FK: store_id" style="curved=1;startArrow=ERmandOne;startSize=10;;endArrow=ERoneToMany;endSize=10;;rounded=0;" edge="1" parent="1" source="U3Y6qxCmVOaivF_U4p9_-306" target="U3Y6qxCmVOaivF_U4p9_-370">
          <mxGeometry relative="1" as="geometry">
            <Array as="points">
              <mxPoint x="1138" y="116" />
            </Array>
          </mxGeometry>
        </mxCell>
        <mxCell id="U3Y6qxCmVOaivF_U4p9_-567" value="FK: store_id" style="curved=1;startArrow=ERmandOne;startSize=10;;endArrow=ERoneToMany;endSize=10;;rounded=0;" edge="1" parent="1" source="U3Y6qxCmVOaivF_U4p9_-306" target="U3Y6qxCmVOaivF_U4p9_-379">
          <mxGeometry relative="1" as="geometry" />
        </mxCell>
        <mxCell id="U3Y6qxCmVOaivF_U4p9_-568" value="FK: category_id" style="curved=1;startArrow=ERmandOne;startSize=10;;endArrow=ERoneToMany;endSize=10;;rounded=0;" edge="1" parent="1" source="U3Y6qxCmVOaivF_U4p9_-370" target="U3Y6qxCmVOaivF_U4p9_-379">
          <mxGeometry relative="1" as="geometry" />
        </mxCell>
        <mxCell id="U3Y6qxCmVOaivF_U4p9_-569" value="FK: store_id" style="curved=1;startArrow=ERmandOne;startSize=10;;endArrow=ERoneToMany;endSize=10;;rounded=0;" edge="1" parent="1" source="U3Y6qxCmVOaivF_U4p9_-306" target="U3Y6qxCmVOaivF_U4p9_-392">
          <mxGeometry relative="1" as="geometry" />
        </mxCell>
        <mxCell id="U3Y6qxCmVOaivF_U4p9_-570" value="FK: admin_id" style="curved=1;startArrow=ERmandOne;startSize=10;;endArrow=ERoneToMany;endSize=10;;rounded=0;" edge="1" parent="1" source="U3Y6qxCmVOaivF_U4p9_-440" target="U3Y6qxCmVOaivF_U4p9_-445">
          <mxGeometry relative="1" as="geometry" />
        </mxCell>
        <mxCell id="U3Y6qxCmVOaivF_U4p9_-571" value="FK: store_id" style="curved=1;startArrow=ERmandOne;startSize=10;;endArrow=ERoneToMany;endSize=10;;rounded=0;" edge="1" parent="1" source="U3Y6qxCmVOaivF_U4p9_-306" target="U3Y6qxCmVOaivF_U4p9_-445">
          <mxGeometry relative="1" as="geometry" />
        </mxCell>
        <mxCell id="U3Y6qxCmVOaivF_U4p9_-572" value="FK: admin_id" style="curved=1;startArrow=ERmandOne;startSize=10;;endArrow=ERoneToMany;endSize=10;;rounded=0;" edge="1" parent="1" source="U3Y6qxCmVOaivF_U4p9_-440" target="U3Y6qxCmVOaivF_U4p9_-454">
          <mxGeometry relative="1" as="geometry" />
        </mxCell>
        <mxCell id="U3Y6qxCmVOaivF_U4p9_-573" value="FK: staff_id" style="curved=1;startArrow=ERmandOne;startSize=10;;endArrow=ERoneToMany;endSize=10;;rounded=0;" edge="1" parent="1" source="U3Y6qxCmVOaivF_U4p9_-463" target="U3Y6qxCmVOaivF_U4p9_-468">
          <mxGeometry relative="1" as="geometry">
            <Array as="points">
              <mxPoint x="2340" y="-170" />
            </Array>
          </mxGeometry>
        </mxCell>
        <mxCell id="U3Y6qxCmVOaivF_U4p9_-574" value="FK: store_id" style="curved=1;startArrow=ERmandOne;startSize=10;;endArrow=ERoneToMany;endSize=10;;rounded=0;" edge="1" parent="1" source="U3Y6qxCmVOaivF_U4p9_-306" target="U3Y6qxCmVOaivF_U4p9_-468">
          <mxGeometry relative="1" as="geometry" />
        </mxCell>
        <mxCell id="U3Y6qxCmVOaivF_U4p9_-575" value="FK: store_id" style="curved=1;startArrow=ERmandOne;startSize=10;;endArrow=ERoneToMany;endSize=10;;rounded=0;" edge="1" parent="1" source="U3Y6qxCmVOaivF_U4p9_-306" target="U3Y6qxCmVOaivF_U4p9_-411">
          <mxGeometry relative="1" as="geometry">
            <Array as="points">
              <mxPoint x="2260" y="70" />
            </Array>
          </mxGeometry>
        </mxCell>
        <mxCell id="U3Y6qxCmVOaivF_U4p9_-576" value="FK: staff_id" style="curved=1;startArrow=ERmandOne;startSize=10;;endArrow=ERoneToMany;endSize=10;;rounded=0;" edge="1" parent="1" source="U3Y6qxCmVOaivF_U4p9_-490" target="U3Y6qxCmVOaivF_U4p9_-411">
          <mxGeometry relative="1" as="geometry">
            <Array as="points" />
          </mxGeometry>
        </mxCell>
        <mxCell id="U3Y6qxCmVOaivF_U4p9_-577" value="FK: customer_id" style="curved=1;startArrow=ERmandOne;startSize=10;;endArrow=ERoneToMany;endSize=10;;rounded=0;" edge="1" parent="1" source="U3Y6qxCmVOaivF_U4p9_-356" target="U3Y6qxCmVOaivF_U4p9_-411">
          <mxGeometry relative="1" as="geometry">
            <Array as="points">
              <mxPoint x="2310" y="-40" />
              <mxPoint x="2120" y="-20" />
              <mxPoint x="2020" y="40" />
            </Array>
          </mxGeometry>
        </mxCell>
        <mxCell id="U3Y6qxCmVOaivF_U4p9_-578" value="FK: reservation_channel_id" style="curved=1;startArrow=ERmandOne;startSize=10;;endArrow=ERoneToMany;endSize=10;;rounded=0;entryX=1;entryY=0.5;entryDx=0;entryDy=0;" edge="1" parent="1" source="U3Y6qxCmVOaivF_U4p9_-392" target="U3Y6qxCmVOaivF_U4p9_-428">
          <mxGeometry relative="1" as="geometry" />
        </mxCell>
        <mxCell id="U3Y6qxCmVOaivF_U4p9_-579" value="FK: discount_id" style="curved=1;startArrow=ERmandOne;startSize=10;;endArrow=ERoneToMany;endSize=10;;rounded=0;" edge="1" parent="1" source="U3Y6qxCmVOaivF_U4p9_-401" target="U3Y6qxCmVOaivF_U4p9_-411">
          <mxGeometry relative="1" as="geometry" />
        </mxCell>
        <mxCell id="U3Y6qxCmVOaivF_U4p9_-580" value="FK: shift_activity_id" style="curved=1;startArrow=ERmandOne;startSize=10;;endArrow=ERoneToMany;endSize=10;;rounded=0;" edge="1" parent="1" source="U3Y6qxCmVOaivF_U4p9_-406" target="U3Y6qxCmVOaivF_U4p9_-411">
          <mxGeometry relative="1" as="geometry" />
        </mxCell>
        <mxCell id="U3Y6qxCmVOaivF_U4p9_-581" value="FK: reservation_id" style="curved=1;startArrow=ERmandOne;startSize=10;;endArrow=ERoneToMany;endSize=10;;rounded=0;" edge="1" parent="1" source="U3Y6qxCmVOaivF_U4p9_-411">
          <mxGeometry relative="1" as="geometry">
            <Array as="points">
              <mxPoint x="972" y="584" />
            </Array>
            <mxPoint x="970" y="600" as="targetPoint" />
          </mxGeometry>
        </mxCell>
        <mxCell id="U3Y6qxCmVOaivF_U4p9_-582" value="FK: menu_id" style="curved=1;startArrow=ERmandOne;startSize=10;;endArrow=ERoneToMany;endSize=10;;rounded=0;" edge="1" parent="1" source="U3Y6qxCmVOaivF_U4p9_-379" target="U3Y6qxCmVOaivF_U4p9_-477">
          <mxGeometry relative="1" as="geometry">
            <Array as="points">
              <mxPoint x="872" y="584" />
            </Array>
          </mxGeometry>
        </mxCell>
        <mxCell id="U3Y6qxCmVOaivF_U4p9_-584" value="FK: store_id" style="curved=1;startArrow=ERmandOne;startSize=10;;endArrow=ERoneToMany;endSize=10;;rounded=0;entryX=0;entryY=0.5;entryDx=0;entryDy=0;" edge="1" parent="1" source="U3Y6qxCmVOaivF_U4p9_-306" target="U3Y6qxCmVOaivF_U4p9_-499">
          <mxGeometry relative="1" as="geometry">
            <Array as="points">
              <mxPoint x="1980" y="-160" />
            </Array>
          </mxGeometry>
        </mxCell>
        <mxCell id="U3Y6qxCmVOaivF_U4p9_-585" value="FK: reservation_id" style="curved=1;startArrow=ERmandOne;startSize=10;;endArrow=ERoneToMany;endSize=10;;rounded=0;entryX=0;entryY=0.5;entryDx=0;entryDy=0;exitX=1;exitY=0.5;exitDx=0;exitDy=0;" edge="1" parent="1" source="U3Y6qxCmVOaivF_U4p9_-412" target="U3Y6qxCmVOaivF_U4p9_-503">
          <mxGeometry relative="1" as="geometry" />
        </mxCell>
        <mxCell id="U3Y6qxCmVOaivF_U4p9_-586" value="FK: operator_id" style="curved=1;startArrow=ERmandOne;startSize=10;;endArrow=ERoneToMany;endSize=10;;rounded=0;entryX=1;entryY=0.5;entryDx=0;entryDy=0;" edge="1" parent="1" source="U3Y6qxCmVOaivF_U4p9_-463" target="U3Y6qxCmVOaivF_U4p9_-507">
          <mxGeometry relative="1" as="geometry">
            <Array as="points">
              <mxPoint x="2300" y="180" />
            </Array>
          </mxGeometry>
        </mxCell>
        <mxCell id="U3Y6qxCmVOaivF_U4p9_-587" value="FK: store_id" style="curved=1;startArrow=ERmandOne;startSize=10;;endArrow=ERoneToMany;endSize=10;;rounded=0;" edge="1" parent="1" source="U3Y6qxCmVOaivF_U4p9_-306" target="U3Y6qxCmVOaivF_U4p9_-511">
          <mxGeometry relative="1" as="geometry" />
        </mxCell>
        <mxCell id="U3Y6qxCmVOaivF_U4p9_-588" value="FK: category_id" style="curved=1;startArrow=ERmandOne;startSize=10;;endArrow=ERoneToMany;endSize=10;;rounded=0;" edge="1" parent="1" source="U3Y6qxCmVOaivF_U4p9_-370" target="U3Y6qxCmVOaivF_U4p9_-511">
          <mxGeometry relative="1" as="geometry" />
        </mxCell>
        <mxCell id="U3Y6qxCmVOaivF_U4p9_-589" value="FK: reservation_id" style="curved=1;startArrow=ERmandOne;startSize=10;;endArrow=ERoneToMany;endSize=10;;rounded=0;exitDx=0;exitDy=0;" edge="1" parent="1" source="U3Y6qxCmVOaivF_U4p9_-436" target="U3Y6qxCmVOaivF_U4p9_-524">
          <mxGeometry relative="1" as="geometry">
            <Array as="points">
              <mxPoint x="1220" y="840" />
            </Array>
            <mxPoint x="2242.2000000000007" y="584" as="sourcePoint" />
          </mxGeometry>
        </mxCell>
        <mxCell id="U3Y6qxCmVOaivF_U4p9_-590" value="FK: goods_id" style="curved=1;startArrow=ERmandOne;startSize=10;;endArrow=ERoneToMany;endSize=10;;rounded=0;" edge="1" parent="1" source="U3Y6qxCmVOaivF_U4p9_-511" target="U3Y6qxCmVOaivF_U4p9_-524">
          <mxGeometry relative="1" as="geometry" />
        </mxCell>
        <mxCell id="U3Y6qxCmVOaivF_U4p9_-591" value="FK: store_id" style="curved=1;startArrow=ERmandOne;startSize=10;;endArrow=ERoneToMany;endSize=10;;rounded=0;entryDx=0;entryDy=0;" edge="1" parent="1" source="U3Y6qxCmVOaivF_U4p9_-306" target="U3Y6qxCmVOaivF_U4p9_-542">
          <mxGeometry relative="1" as="geometry" />
        </mxCell>
        <mxCell id="U3Y6qxCmVOaivF_U4p9_-592" value="FK: customer_id" style="curved=1;startArrow=ERmandOne;startSize=10;;endArrow=ERoneToMany;endSize=10;;rounded=0;entryDx=0;entryDy=0;exitDx=0;exitDy=0;entryX=1;entryY=0.5;" edge="1" parent="1" source="U3Y6qxCmVOaivF_U4p9_-357" target="U3Y6qxCmVOaivF_U4p9_-546">
          <mxGeometry relative="1" as="geometry" />
        </mxCell>
        <mxCell id="U3Y6qxCmVOaivF_U4p9_-593" value="FK: store_id" style="curved=1;startArrow=ERmandOne;startSize=10;;endArrow=ERoneToMany;endSize=10;;rounded=0;" edge="1" parent="1" source="U3Y6qxCmVOaivF_U4p9_-306" target="U3Y6qxCmVOaivF_U4p9_-550">
          <mxGeometry relative="1" as="geometry" />
        </mxCell>
        <mxCell id="U3Y6qxCmVOaivF_U4p9_-490" value="reservation_activity_log" style="shape=table;startSize=25;container=1;collapsible=0;childLayout=tableLayout;fixedRows=1;rowLines=1;fontStyle=1;align=center;resizeLast=1;" vertex="1" parent="1">
          <mxGeometry x="2068" y="137" width="202" height="113" as="geometry" />
        </mxCell>
        <mxCell id="U3Y6qxCmVOaivF_U4p9_-491" style="shape=tableRow;horizontal=0;startSize=0;swimlaneHead=0;swimlaneBody=0;fillColor=none;collapsible=0;dropTarget=0;points=[[0,0.5],[1,0.5]];portConstraint=eastwest;top=0;left=0;right=0;bottom=0;" vertex="1" parent="U3Y6qxCmVOaivF_U4p9_-490">
          <mxGeometry y="25" width="202" height="22" as="geometry" />
        </mxCell>
        <mxCell id="U3Y6qxCmVOaivF_U4p9_-492" value="int" style="shape=partialRectangle;connectable=0;fillColor=none;top=0;left=0;bottom=0;right=0;align=left;spacingLeft=2;overflow=hidden;fontSize=11;" vertex="1" parent="U3Y6qxCmVOaivF_U4p9_-491">
          <mxGeometry width="18" height="22" as="geometry">
            <mxRectangle width="18" height="22" as="alternateBounds" />
          </mxGeometry>
        </mxCell>
        <mxCell id="U3Y6qxCmVOaivF_U4p9_-493" value="reservation_activity_log_id" style="shape=partialRectangle;connectable=0;fillColor=none;top=0;left=0;bottom=0;right=0;align=left;spacingLeft=2;overflow=hidden;fontSize=11;" vertex="1" parent="U3Y6qxCmVOaivF_U4p9_-491">
          <mxGeometry x="18" width="162" height="22" as="geometry">
            <mxRectangle width="162" height="22" as="alternateBounds" />
          </mxGeometry>
        </mxCell>
        <mxCell id="U3Y6qxCmVOaivF_U4p9_-494" value="PK" style="shape=partialRectangle;connectable=0;fillColor=none;top=0;left=0;bottom=0;right=0;align=left;spacingLeft=2;overflow=hidden;fontSize=11;" vertex="1" parent="U3Y6qxCmVOaivF_U4p9_-491">
          <mxGeometry x="180" width="22" height="22" as="geometry">
            <mxRectangle width="22" height="22" as="alternateBounds" />
          </mxGeometry>
        </mxCell>
        <mxCell id="U3Y6qxCmVOaivF_U4p9_-499" style="shape=tableRow;horizontal=0;startSize=0;swimlaneHead=0;swimlaneBody=0;fillColor=none;collapsible=0;dropTarget=0;points=[[0,0.5],[1,0.5]];portConstraint=eastwest;top=0;left=0;right=0;bottom=0;" vertex="1" parent="U3Y6qxCmVOaivF_U4p9_-490">
          <mxGeometry y="47" width="202" height="22" as="geometry" />
        </mxCell>
        <mxCell id="U3Y6qxCmVOaivF_U4p9_-500" value="int" style="shape=partialRectangle;connectable=0;fillColor=none;top=0;left=0;bottom=0;right=0;align=left;spacingLeft=2;overflow=hidden;fontSize=11;" vertex="1" parent="U3Y6qxCmVOaivF_U4p9_-499">
          <mxGeometry width="18" height="22" as="geometry">
            <mxRectangle width="18" height="22" as="alternateBounds" />
          </mxGeometry>
        </mxCell>
        <mxCell id="U3Y6qxCmVOaivF_U4p9_-501" value="store_id" style="shape=partialRectangle;connectable=0;fillColor=none;top=0;left=0;bottom=0;right=0;align=left;spacingLeft=2;overflow=hidden;fontSize=11;" vertex="1" parent="U3Y6qxCmVOaivF_U4p9_-499">
          <mxGeometry x="18" width="162" height="22" as="geometry">
            <mxRectangle width="162" height="22" as="alternateBounds" />
          </mxGeometry>
        </mxCell>
        <mxCell id="U3Y6qxCmVOaivF_U4p9_-502" value="FK" style="shape=partialRectangle;connectable=0;fillColor=none;top=0;left=0;bottom=0;right=0;align=left;spacingLeft=2;overflow=hidden;fontSize=11;" vertex="1" parent="U3Y6qxCmVOaivF_U4p9_-499">
          <mxGeometry x="180" width="22" height="22" as="geometry">
            <mxRectangle width="22" height="22" as="alternateBounds" />
          </mxGeometry>
        </mxCell>
        <mxCell id="U3Y6qxCmVOaivF_U4p9_-503" style="shape=tableRow;horizontal=0;startSize=0;swimlaneHead=0;swimlaneBody=0;fillColor=none;collapsible=0;dropTarget=0;points=[[0,0.5],[1,0.5]];portConstraint=eastwest;top=0;left=0;right=0;bottom=0;" vertex="1" parent="U3Y6qxCmVOaivF_U4p9_-490">
          <mxGeometry y="69" width="202" height="22" as="geometry" />
        </mxCell>
        <mxCell id="U3Y6qxCmVOaivF_U4p9_-504" value="int" style="shape=partialRectangle;connectable=0;fillColor=none;top=0;left=0;bottom=0;right=0;align=left;spacingLeft=2;overflow=hidden;fontSize=11;" vertex="1" parent="U3Y6qxCmVOaivF_U4p9_-503">
          <mxGeometry width="18" height="22" as="geometry">
            <mxRectangle width="18" height="22" as="alternateBounds" />
          </mxGeometry>
        </mxCell>
        <mxCell id="U3Y6qxCmVOaivF_U4p9_-505" value="reservation_id" style="shape=partialRectangle;connectable=0;fillColor=none;top=0;left=0;bottom=0;right=0;align=left;spacingLeft=2;overflow=hidden;fontSize=11;" vertex="1" parent="U3Y6qxCmVOaivF_U4p9_-503">
          <mxGeometry x="18" width="162" height="22" as="geometry">
            <mxRectangle width="162" height="22" as="alternateBounds" />
          </mxGeometry>
        </mxCell>
        <mxCell id="U3Y6qxCmVOaivF_U4p9_-506" value="FK" style="shape=partialRectangle;connectable=0;fillColor=none;top=0;left=0;bottom=0;right=0;align=left;spacingLeft=2;overflow=hidden;fontSize=11;" vertex="1" parent="U3Y6qxCmVOaivF_U4p9_-503">
          <mxGeometry x="180" width="22" height="22" as="geometry">
            <mxRectangle width="22" height="22" as="alternateBounds" />
          </mxGeometry>
        </mxCell>
        <mxCell id="U3Y6qxCmVOaivF_U4p9_-507" style="shape=tableRow;horizontal=0;startSize=0;swimlaneHead=0;swimlaneBody=0;fillColor=none;collapsible=0;dropTarget=0;points=[[0,0.5],[1,0.5]];portConstraint=eastwest;top=0;left=0;right=0;bottom=0;" vertex="1" parent="U3Y6qxCmVOaivF_U4p9_-490">
          <mxGeometry y="91" width="202" height="22" as="geometry" />
        </mxCell>
        <mxCell id="U3Y6qxCmVOaivF_U4p9_-508" value="int" style="shape=partialRectangle;connectable=0;fillColor=none;top=0;left=0;bottom=0;right=0;align=left;spacingLeft=2;overflow=hidden;fontSize=11;" vertex="1" parent="U3Y6qxCmVOaivF_U4p9_-507">
          <mxGeometry width="18" height="22" as="geometry">
            <mxRectangle width="18" height="22" as="alternateBounds" />
          </mxGeometry>
        </mxCell>
        <mxCell id="U3Y6qxCmVOaivF_U4p9_-509" value="staff_id" style="shape=partialRectangle;connectable=0;fillColor=none;top=0;left=0;bottom=0;right=0;align=left;spacingLeft=2;overflow=hidden;fontSize=11;" vertex="1" parent="U3Y6qxCmVOaivF_U4p9_-507">
          <mxGeometry x="18" width="162" height="22" as="geometry">
            <mxRectangle width="162" height="22" as="alternateBounds" />
          </mxGeometry>
        </mxCell>
        <mxCell id="U3Y6qxCmVOaivF_U4p9_-510" value="FK" style="shape=partialRectangle;connectable=0;fillColor=none;top=0;left=0;bottom=0;right=0;align=left;spacingLeft=2;overflow=hidden;fontSize=11;" vertex="1" parent="U3Y6qxCmVOaivF_U4p9_-507">
          <mxGeometry x="180" width="22" height="22" as="geometry">
            <mxRectangle width="22" height="22" as="alternateBounds" />
          </mxGeometry>
        </mxCell>
        <mxCell id="U3Y6qxCmVOaivF_U4p9_-609" value="レジ金系&#xa;&#xa;" style="group" vertex="1" connectable="0" parent="1">
          <mxGeometry x="637" y="-384" width="453" height="303" as="geometry" />
        </mxCell>
        <mxCell id="U3Y6qxCmVOaivF_U4p9_-320" value="cashier_cash" style="shape=table;startSize=25;container=1;collapsible=0;childLayout=tableLayout;fixedRows=1;rowLines=1;fontStyle=1;align=center;resizeLast=1;" vertex="1" parent="U3Y6qxCmVOaivF_U4p9_-609">
          <mxGeometry x="113" width="130" height="69" as="geometry" />
        </mxCell>
        <mxCell id="U3Y6qxCmVOaivF_U4p9_-321" style="shape=tableRow;horizontal=0;startSize=0;swimlaneHead=0;swimlaneBody=0;fillColor=none;collapsible=0;dropTarget=0;points=[[0,0.5],[1,0.5]];portConstraint=eastwest;top=0;left=0;right=0;bottom=0;" vertex="1" parent="U3Y6qxCmVOaivF_U4p9_-320">
          <mxGeometry y="25" width="130" height="22" as="geometry" />
        </mxCell>
        <mxCell id="U3Y6qxCmVOaivF_U4p9_-322" value="int" style="shape=partialRectangle;connectable=0;fillColor=none;top=0;left=0;bottom=0;right=0;align=left;spacingLeft=2;overflow=hidden;fontSize=11;" vertex="1" parent="U3Y6qxCmVOaivF_U4p9_-321">
          <mxGeometry width="18" height="22" as="geometry">
            <mxRectangle width="18" height="22" as="alternateBounds" />
          </mxGeometry>
        </mxCell>
        <mxCell id="U3Y6qxCmVOaivF_U4p9_-323" value="cashier_cash_id" style="shape=partialRectangle;connectable=0;fillColor=none;top=0;left=0;bottom=0;right=0;align=left;spacingLeft=2;overflow=hidden;fontSize=11;" vertex="1" parent="U3Y6qxCmVOaivF_U4p9_-321">
          <mxGeometry x="18" width="90" height="22" as="geometry">
            <mxRectangle width="90" height="22" as="alternateBounds" />
          </mxGeometry>
        </mxCell>
        <mxCell id="U3Y6qxCmVOaivF_U4p9_-324" value="PK" style="shape=partialRectangle;connectable=0;fillColor=none;top=0;left=0;bottom=0;right=0;align=left;spacingLeft=2;overflow=hidden;fontSize=11;" vertex="1" parent="U3Y6qxCmVOaivF_U4p9_-321">
          <mxGeometry x="108" width="22" height="22" as="geometry">
            <mxRectangle width="22" height="22" as="alternateBounds" />
          </mxGeometry>
        </mxCell>
        <mxCell id="U3Y6qxCmVOaivF_U4p9_-325" style="shape=tableRow;horizontal=0;startSize=0;swimlaneHead=0;swimlaneBody=0;fillColor=none;collapsible=0;dropTarget=0;points=[[0,0.5],[1,0.5]];portConstraint=eastwest;top=0;left=0;right=0;bottom=0;" vertex="1" parent="U3Y6qxCmVOaivF_U4p9_-320">
          <mxGeometry y="47" width="130" height="22" as="geometry" />
        </mxCell>
        <mxCell id="U3Y6qxCmVOaivF_U4p9_-326" value="int" style="shape=partialRectangle;connectable=0;fillColor=none;top=0;left=0;bottom=0;right=0;align=left;spacingLeft=2;overflow=hidden;fontSize=11;" vertex="1" parent="U3Y6qxCmVOaivF_U4p9_-325">
          <mxGeometry width="18" height="22" as="geometry">
            <mxRectangle width="18" height="22" as="alternateBounds" />
          </mxGeometry>
        </mxCell>
        <mxCell id="U3Y6qxCmVOaivF_U4p9_-327" value="store_id" style="shape=partialRectangle;connectable=0;fillColor=none;top=0;left=0;bottom=0;right=0;align=left;spacingLeft=2;overflow=hidden;fontSize=11;" vertex="1" parent="U3Y6qxCmVOaivF_U4p9_-325">
          <mxGeometry x="18" width="90" height="22" as="geometry">
            <mxRectangle width="90" height="22" as="alternateBounds" />
          </mxGeometry>
        </mxCell>
        <mxCell id="U3Y6qxCmVOaivF_U4p9_-328" value="FK" style="shape=partialRectangle;connectable=0;fillColor=none;top=0;left=0;bottom=0;right=0;align=left;spacingLeft=2;overflow=hidden;fontSize=11;" vertex="1" parent="U3Y6qxCmVOaivF_U4p9_-325">
          <mxGeometry x="108" width="22" height="22" as="geometry">
            <mxRectangle width="22" height="22" as="alternateBounds" />
          </mxGeometry>
        </mxCell>
        <mxCell id="U3Y6qxCmVOaivF_U4p9_-329" value="cashbook" style="shape=table;startSize=25;container=1;collapsible=0;childLayout=tableLayout;fixedRows=1;rowLines=1;fontStyle=1;align=center;resizeLast=1;" vertex="1" parent="U3Y6qxCmVOaivF_U4p9_-609">
          <mxGeometry y="234" width="130" height="69" as="geometry" />
        </mxCell>
        <mxCell id="U3Y6qxCmVOaivF_U4p9_-330" style="shape=tableRow;horizontal=0;startSize=0;swimlaneHead=0;swimlaneBody=0;fillColor=none;collapsible=0;dropTarget=0;points=[[0,0.5],[1,0.5]];portConstraint=eastwest;top=0;left=0;right=0;bottom=0;" vertex="1" parent="U3Y6qxCmVOaivF_U4p9_-329">
          <mxGeometry y="25" width="130" height="22" as="geometry" />
        </mxCell>
        <mxCell id="U3Y6qxCmVOaivF_U4p9_-331" value="int" style="shape=partialRectangle;connectable=0;fillColor=none;top=0;left=0;bottom=0;right=0;align=left;spacingLeft=2;overflow=hidden;fontSize=11;" vertex="1" parent="U3Y6qxCmVOaivF_U4p9_-330">
          <mxGeometry width="18" height="22" as="geometry">
            <mxRectangle width="18" height="22" as="alternateBounds" />
          </mxGeometry>
        </mxCell>
        <mxCell id="U3Y6qxCmVOaivF_U4p9_-332" value="cashbook_id" style="shape=partialRectangle;connectable=0;fillColor=none;top=0;left=0;bottom=0;right=0;align=left;spacingLeft=2;overflow=hidden;fontSize=11;" vertex="1" parent="U3Y6qxCmVOaivF_U4p9_-330">
          <mxGeometry x="18" width="90" height="22" as="geometry">
            <mxRectangle width="90" height="22" as="alternateBounds" />
          </mxGeometry>
        </mxCell>
        <mxCell id="U3Y6qxCmVOaivF_U4p9_-333" value="PK" style="shape=partialRectangle;connectable=0;fillColor=none;top=0;left=0;bottom=0;right=0;align=left;spacingLeft=2;overflow=hidden;fontSize=11;" vertex="1" parent="U3Y6qxCmVOaivF_U4p9_-330">
          <mxGeometry x="108" width="22" height="22" as="geometry">
            <mxRectangle width="22" height="22" as="alternateBounds" />
          </mxGeometry>
        </mxCell>
        <mxCell id="U3Y6qxCmVOaivF_U4p9_-334" style="shape=tableRow;horizontal=0;startSize=0;swimlaneHead=0;swimlaneBody=0;fillColor=none;collapsible=0;dropTarget=0;points=[[0,0.5],[1,0.5]];portConstraint=eastwest;top=0;left=0;right=0;bottom=0;" vertex="1" parent="U3Y6qxCmVOaivF_U4p9_-329">
          <mxGeometry y="47" width="130" height="22" as="geometry" />
        </mxCell>
        <mxCell id="U3Y6qxCmVOaivF_U4p9_-335" value="int" style="shape=partialRectangle;connectable=0;fillColor=none;top=0;left=0;bottom=0;right=0;align=left;spacingLeft=2;overflow=hidden;fontSize=11;" vertex="1" parent="U3Y6qxCmVOaivF_U4p9_-334">
          <mxGeometry width="18" height="22" as="geometry">
            <mxRectangle width="18" height="22" as="alternateBounds" />
          </mxGeometry>
        </mxCell>
        <mxCell id="U3Y6qxCmVOaivF_U4p9_-336" value="cashier_cash_id" style="shape=partialRectangle;connectable=0;fillColor=none;top=0;left=0;bottom=0;right=0;align=left;spacingLeft=2;overflow=hidden;fontSize=11;" vertex="1" parent="U3Y6qxCmVOaivF_U4p9_-334">
          <mxGeometry x="18" width="90" height="22" as="geometry">
            <mxRectangle width="90" height="22" as="alternateBounds" />
          </mxGeometry>
        </mxCell>
        <mxCell id="U3Y6qxCmVOaivF_U4p9_-337" value="FK" style="shape=partialRectangle;connectable=0;fillColor=none;top=0;left=0;bottom=0;right=0;align=left;spacingLeft=2;overflow=hidden;fontSize=11;" vertex="1" parent="U3Y6qxCmVOaivF_U4p9_-334">
          <mxGeometry x="108" width="22" height="22" as="geometry">
            <mxRectangle width="22" height="22" as="alternateBounds" />
          </mxGeometry>
        </mxCell>
        <mxCell id="U3Y6qxCmVOaivF_U4p9_-338" value="store_closing" style="shape=table;startSize=25;container=1;collapsible=0;childLayout=tableLayout;fixedRows=1;rowLines=1;fontStyle=1;align=center;resizeLast=1;" vertex="1" parent="U3Y6qxCmVOaivF_U4p9_-609">
          <mxGeometry x="313" y="5" width="136" height="69" as="geometry" />
        </mxCell>
        <mxCell id="U3Y6qxCmVOaivF_U4p9_-339" style="shape=tableRow;horizontal=0;startSize=0;swimlaneHead=0;swimlaneBody=0;fillColor=none;collapsible=0;dropTarget=0;points=[[0,0.5],[1,0.5]];portConstraint=eastwest;top=0;left=0;right=0;bottom=0;" vertex="1" parent="U3Y6qxCmVOaivF_U4p9_-338">
          <mxGeometry y="25" width="136" height="22" as="geometry" />
        </mxCell>
        <mxCell id="U3Y6qxCmVOaivF_U4p9_-340" value="int" style="shape=partialRectangle;connectable=0;fillColor=none;top=0;left=0;bottom=0;right=0;align=left;spacingLeft=2;overflow=hidden;fontSize=11;" vertex="1" parent="U3Y6qxCmVOaivF_U4p9_-339">
          <mxGeometry width="18" height="22" as="geometry">
            <mxRectangle width="18" height="22" as="alternateBounds" />
          </mxGeometry>
        </mxCell>
        <mxCell id="U3Y6qxCmVOaivF_U4p9_-341" value="store_closing_id" style="shape=partialRectangle;connectable=0;fillColor=none;top=0;left=0;bottom=0;right=0;align=left;spacingLeft=2;overflow=hidden;fontSize=11;" vertex="1" parent="U3Y6qxCmVOaivF_U4p9_-339">
          <mxGeometry x="18" width="96" height="22" as="geometry">
            <mxRectangle width="96" height="22" as="alternateBounds" />
          </mxGeometry>
        </mxCell>
        <mxCell id="U3Y6qxCmVOaivF_U4p9_-342" value="PK" style="shape=partialRectangle;connectable=0;fillColor=none;top=0;left=0;bottom=0;right=0;align=left;spacingLeft=2;overflow=hidden;fontSize=11;" vertex="1" parent="U3Y6qxCmVOaivF_U4p9_-339">
          <mxGeometry x="114" width="22" height="22" as="geometry">
            <mxRectangle width="22" height="22" as="alternateBounds" />
          </mxGeometry>
        </mxCell>
        <mxCell id="U3Y6qxCmVOaivF_U4p9_-343" style="shape=tableRow;horizontal=0;startSize=0;swimlaneHead=0;swimlaneBody=0;fillColor=none;collapsible=0;dropTarget=0;points=[[0,0.5],[1,0.5]];portConstraint=eastwest;top=0;left=0;right=0;bottom=0;" vertex="1" parent="U3Y6qxCmVOaivF_U4p9_-338">
          <mxGeometry y="47" width="136" height="22" as="geometry" />
        </mxCell>
        <mxCell id="U3Y6qxCmVOaivF_U4p9_-344" value="int" style="shape=partialRectangle;connectable=0;fillColor=none;top=0;left=0;bottom=0;right=0;align=left;spacingLeft=2;overflow=hidden;fontSize=11;" vertex="1" parent="U3Y6qxCmVOaivF_U4p9_-343">
          <mxGeometry width="18" height="22" as="geometry">
            <mxRectangle width="18" height="22" as="alternateBounds" />
          </mxGeometry>
        </mxCell>
        <mxCell id="U3Y6qxCmVOaivF_U4p9_-345" value="store_id" style="shape=partialRectangle;connectable=0;fillColor=none;top=0;left=0;bottom=0;right=0;align=left;spacingLeft=2;overflow=hidden;fontSize=11;" vertex="1" parent="U3Y6qxCmVOaivF_U4p9_-343">
          <mxGeometry x="18" width="96" height="22" as="geometry">
            <mxRectangle width="96" height="22" as="alternateBounds" />
          </mxGeometry>
        </mxCell>
        <mxCell id="U3Y6qxCmVOaivF_U4p9_-346" value="FK" style="shape=partialRectangle;connectable=0;fillColor=none;top=0;left=0;bottom=0;right=0;align=left;spacingLeft=2;overflow=hidden;fontSize=11;" vertex="1" parent="U3Y6qxCmVOaivF_U4p9_-343">
          <mxGeometry x="114" width="22" height="22" as="geometry">
            <mxRectangle width="22" height="22" as="alternateBounds" />
          </mxGeometry>
        </mxCell>
        <mxCell id="U3Y6qxCmVOaivF_U4p9_-347" value="expense" style="shape=table;startSize=25;container=1;collapsible=0;childLayout=tableLayout;fixedRows=1;rowLines=1;fontStyle=1;align=center;resizeLast=1;" vertex="1" parent="U3Y6qxCmVOaivF_U4p9_-609">
          <mxGeometry x="226" y="234" width="130" height="69" as="geometry" />
        </mxCell>
        <mxCell id="U3Y6qxCmVOaivF_U4p9_-348" style="shape=tableRow;horizontal=0;startSize=0;swimlaneHead=0;swimlaneBody=0;fillColor=none;collapsible=0;dropTarget=0;points=[[0,0.5],[1,0.5]];portConstraint=eastwest;top=0;left=0;right=0;bottom=0;" vertex="1" parent="U3Y6qxCmVOaivF_U4p9_-347">
          <mxGeometry y="25" width="130" height="22" as="geometry" />
        </mxCell>
        <mxCell id="U3Y6qxCmVOaivF_U4p9_-349" value="int" style="shape=partialRectangle;connectable=0;fillColor=none;top=0;left=0;bottom=0;right=0;align=left;spacingLeft=2;overflow=hidden;fontSize=11;" vertex="1" parent="U3Y6qxCmVOaivF_U4p9_-348">
          <mxGeometry width="18" height="22" as="geometry">
            <mxRectangle width="18" height="22" as="alternateBounds" />
          </mxGeometry>
        </mxCell>
        <mxCell id="U3Y6qxCmVOaivF_U4p9_-350" value="expense_id" style="shape=partialRectangle;connectable=0;fillColor=none;top=0;left=0;bottom=0;right=0;align=left;spacingLeft=2;overflow=hidden;fontSize=11;" vertex="1" parent="U3Y6qxCmVOaivF_U4p9_-348">
          <mxGeometry x="18" width="90" height="22" as="geometry">
            <mxRectangle width="90" height="22" as="alternateBounds" />
          </mxGeometry>
        </mxCell>
        <mxCell id="U3Y6qxCmVOaivF_U4p9_-351" value="PK" style="shape=partialRectangle;connectable=0;fillColor=none;top=0;left=0;bottom=0;right=0;align=left;spacingLeft=2;overflow=hidden;fontSize=11;" vertex="1" parent="U3Y6qxCmVOaivF_U4p9_-348">
          <mxGeometry x="108" width="22" height="22" as="geometry">
            <mxRectangle width="22" height="22" as="alternateBounds" />
          </mxGeometry>
        </mxCell>
        <mxCell id="U3Y6qxCmVOaivF_U4p9_-352" style="shape=tableRow;horizontal=0;startSize=0;swimlaneHead=0;swimlaneBody=0;fillColor=none;collapsible=0;dropTarget=0;points=[[0,0.5],[1,0.5]];portConstraint=eastwest;top=0;left=0;right=0;bottom=0;" vertex="1" parent="U3Y6qxCmVOaivF_U4p9_-347">
          <mxGeometry y="47" width="130" height="22" as="geometry" />
        </mxCell>
        <mxCell id="U3Y6qxCmVOaivF_U4p9_-353" value="int" style="shape=partialRectangle;connectable=0;fillColor=none;top=0;left=0;bottom=0;right=0;align=left;spacingLeft=2;overflow=hidden;fontSize=11;" vertex="1" parent="U3Y6qxCmVOaivF_U4p9_-352">
          <mxGeometry width="18" height="22" as="geometry">
            <mxRectangle width="18" height="22" as="alternateBounds" />
          </mxGeometry>
        </mxCell>
        <mxCell id="U3Y6qxCmVOaivF_U4p9_-354" value="cashier_cash_id" style="shape=partialRectangle;connectable=0;fillColor=none;top=0;left=0;bottom=0;right=0;align=left;spacingLeft=2;overflow=hidden;fontSize=11;" vertex="1" parent="U3Y6qxCmVOaivF_U4p9_-352">
          <mxGeometry x="18" width="90" height="22" as="geometry">
            <mxRectangle width="90" height="22" as="alternateBounds" />
          </mxGeometry>
        </mxCell>
        <mxCell id="U3Y6qxCmVOaivF_U4p9_-355" value="FK" style="shape=partialRectangle;connectable=0;fillColor=none;top=0;left=0;bottom=0;right=0;align=left;spacingLeft=2;overflow=hidden;fontSize=11;" vertex="1" parent="U3Y6qxCmVOaivF_U4p9_-352">
          <mxGeometry x="108" width="22" height="22" as="geometry">
            <mxRectangle width="22" height="22" as="alternateBounds" />
          </mxGeometry>
        </mxCell>
        <mxCell id="U3Y6qxCmVOaivF_U4p9_-550" value="super_closing" style="shape=table;startSize=25;container=1;collapsible=0;childLayout=tableLayout;fixedRows=1;rowLines=1;fontStyle=1;align=center;resizeLast=1;" vertex="1" parent="U3Y6qxCmVOaivF_U4p9_-609">
          <mxGeometry x="317" y="104" width="136" height="69" as="geometry" />
        </mxCell>
        <mxCell id="U3Y6qxCmVOaivF_U4p9_-551" style="shape=tableRow;horizontal=0;startSize=0;swimlaneHead=0;swimlaneBody=0;fillColor=none;collapsible=0;dropTarget=0;points=[[0,0.5],[1,0.5]];portConstraint=eastwest;top=0;left=0;right=0;bottom=0;" vertex="1" parent="U3Y6qxCmVOaivF_U4p9_-550">
          <mxGeometry y="25" width="136" height="22" as="geometry" />
        </mxCell>
        <mxCell id="U3Y6qxCmVOaivF_U4p9_-552" value="int" style="shape=partialRectangle;connectable=0;fillColor=none;top=0;left=0;bottom=0;right=0;align=left;spacingLeft=2;overflow=hidden;fontSize=11;" vertex="1" parent="U3Y6qxCmVOaivF_U4p9_-551">
          <mxGeometry width="18" height="22" as="geometry">
            <mxRectangle width="18" height="22" as="alternateBounds" />
          </mxGeometry>
        </mxCell>
        <mxCell id="U3Y6qxCmVOaivF_U4p9_-553" value="super_closing_id" style="shape=partialRectangle;connectable=0;fillColor=none;top=0;left=0;bottom=0;right=0;align=left;spacingLeft=2;overflow=hidden;fontSize=11;" vertex="1" parent="U3Y6qxCmVOaivF_U4p9_-551">
          <mxGeometry x="18" width="96" height="22" as="geometry">
            <mxRectangle width="96" height="22" as="alternateBounds" />
          </mxGeometry>
        </mxCell>
        <mxCell id="U3Y6qxCmVOaivF_U4p9_-554" value="PK" style="shape=partialRectangle;connectable=0;fillColor=none;top=0;left=0;bottom=0;right=0;align=left;spacingLeft=2;overflow=hidden;fontSize=11;" vertex="1" parent="U3Y6qxCmVOaivF_U4p9_-551">
          <mxGeometry x="114" width="22" height="22" as="geometry">
            <mxRectangle width="22" height="22" as="alternateBounds" />
          </mxGeometry>
        </mxCell>
        <mxCell id="U3Y6qxCmVOaivF_U4p9_-555" style="shape=tableRow;horizontal=0;startSize=0;swimlaneHead=0;swimlaneBody=0;fillColor=none;collapsible=0;dropTarget=0;points=[[0,0.5],[1,0.5]];portConstraint=eastwest;top=0;left=0;right=0;bottom=0;" vertex="1" parent="U3Y6qxCmVOaivF_U4p9_-550">
          <mxGeometry y="47" width="136" height="22" as="geometry" />
        </mxCell>
        <mxCell id="U3Y6qxCmVOaivF_U4p9_-556" value="int" style="shape=partialRectangle;connectable=0;fillColor=none;top=0;left=0;bottom=0;right=0;align=left;spacingLeft=2;overflow=hidden;fontSize=11;" vertex="1" parent="U3Y6qxCmVOaivF_U4p9_-555">
          <mxGeometry width="18" height="22" as="geometry">
            <mxRectangle width="18" height="22" as="alternateBounds" />
          </mxGeometry>
        </mxCell>
        <mxCell id="U3Y6qxCmVOaivF_U4p9_-557" value="store_id" style="shape=partialRectangle;connectable=0;fillColor=none;top=0;left=0;bottom=0;right=0;align=left;spacingLeft=2;overflow=hidden;fontSize=11;" vertex="1" parent="U3Y6qxCmVOaivF_U4p9_-555">
          <mxGeometry x="18" width="96" height="22" as="geometry">
            <mxRectangle width="96" height="22" as="alternateBounds" />
          </mxGeometry>
        </mxCell>
        <mxCell id="U3Y6qxCmVOaivF_U4p9_-558" value="FK" style="shape=partialRectangle;connectable=0;fillColor=none;top=0;left=0;bottom=0;right=0;align=left;spacingLeft=2;overflow=hidden;fontSize=11;" vertex="1" parent="U3Y6qxCmVOaivF_U4p9_-555">
          <mxGeometry x="114" width="22" height="22" as="geometry">
            <mxRectangle width="22" height="22" as="alternateBounds" />
          </mxGeometry>
        </mxCell>
        <mxCell id="U3Y6qxCmVOaivF_U4p9_-561" value="FK: cashier_cash_id" style="curved=1;startArrow=ERmandOne;startSize=10;;endArrow=ERoneToMany;endSize=10;;rounded=0;" edge="1" parent="U3Y6qxCmVOaivF_U4p9_-609" source="U3Y6qxCmVOaivF_U4p9_-320" target="U3Y6qxCmVOaivF_U4p9_-329">
          <mxGeometry relative="1" as="geometry" />
        </mxCell>
        <mxCell id="U3Y6qxCmVOaivF_U4p9_-562" value="FK: cashier_cash_id" style="curved=1;startArrow=ERmandOne;startSize=10;;endArrow=ERoneToMany;endSize=10;;rounded=0;" edge="1" parent="U3Y6qxCmVOaivF_U4p9_-609" source="U3Y6qxCmVOaivF_U4p9_-320" target="U3Y6qxCmVOaivF_U4p9_-347">
          <mxGeometry relative="1" as="geometry" />
        </mxCell>
        <mxCell id="U3Y6qxCmVOaivF_U4p9_-610" value="レジ金系" style="text;html=1;align=center;verticalAlign=middle;whiteSpace=wrap;rounded=0;fontSize=26;" vertex="1" parent="1">
          <mxGeometry x="750" y="-450" width="142" height="30" as="geometry" />
        </mxCell>
        <mxCell id="U3Y6qxCmVOaivF_U4p9_-612" value="管理者" style="text;html=1;align=center;verticalAlign=middle;whiteSpace=wrap;rounded=0;fontSize=26;" vertex="1" parent="1">
          <mxGeometry x="1459" y="-720" width="142" height="30" as="geometry" />
        </mxCell>
        <mxCell id="U3Y6qxCmVOaivF_U4p9_-613" value="顧客" style="text;html=1;align=center;verticalAlign=middle;whiteSpace=wrap;rounded=0;fontSize=26;" vertex="1" parent="1">
          <mxGeometry x="2034" y="-720" width="142" height="30" as="geometry" />
        </mxCell>
        <mxCell id="U3Y6qxCmVOaivF_U4p9_-614" value="メニュー" style="text;html=1;align=center;verticalAlign=middle;whiteSpace=wrap;rounded=0;fontSize=26;" vertex="1" parent="1">
          <mxGeometry x="440" y="360" width="142" height="30" as="geometry" />
        </mxCell>
        <mxCell id="U3Y6qxCmVOaivF_U4p9_-615" value="スタッフ" style="text;html=1;align=center;verticalAlign=middle;whiteSpace=wrap;rounded=0;fontSize=26;" vertex="1" parent="1">
          <mxGeometry x="2380" y="-131" width="142" height="30" as="geometry" />
        </mxCell>
        <mxCell id="U3Y6qxCmVOaivF_U4p9_-616" value="注文" style="text;html=1;align=center;verticalAlign=middle;whiteSpace=wrap;rounded=0;fontSize=26;" vertex="1" parent="1">
          <mxGeometry x="1338" y="30" width="142" height="30" as="geometry" />
        </mxCell>
      </root>
    </mxGraphModel>
  </diagram>
</mxfile>
